<svg width="98" height="24" xmlns="http://www.w3.org/2000/svg">
  <defs>
    <linearGradient x1="49.998%" y1="99.999%" x2="49.998%" y2="0%" id="a">
      <stop stop-color="#DF73A3" offset="0%"/>
      <stop stop-color="#44398F" offset="100%"/>
    </linearGradient>
    <linearGradient x1="50.003%" y1="99.998%" x2="50.003%" y2="0%" id="b">
      <stop stop-color="#DF73A3" offset="0%"/>
      <stop stop-color="#44398F" offset="100%"/>
    </linearGradient>
    <linearGradient x1="50.001%" y1="100%" x2="50.001%" y2="0%" id="c">
      <stop stop-color="#DF73A3" offset="0%"/>
      <stop stop-color="#44398F" offset="100%"/>
    </linearGradient>
    <linearGradient x1="50.004%" y1="99.999%" x2="50.004%" y2=".002%" id="d">
      <stop stop-color="#DF73A3" offset="0%"/>
      <stop stop-color="#44398F" offset="100%"/>
    </linearGradient>
    <linearGradient x1="50%" y1="100.001%" x2="50%" y2=".001%" id="e">
      <stop stop-color="#DF73A3" offset="0%"/>
      <stop stop-color="#44398F" offset="100%"/>
    </linearGradient>
  </defs>
  <g fill="none" fill-rule="evenodd">
    <path
      d="M17.255 9.895c-1.368-5.03-4.27-8.838-7.095-9.708A3.485 3.485 0 0 0 9.045 0h-.09A3.423 3.423 0 0 0 7.84.187c-2.825.87-5.727 4.678-7.095 9.708C-.965 16.184.37 22 3.726 22.886c1.385.366 2.898-.166 4.318-1.358l.038-.03a1.25 1.25 0 0 0 .294-.576c.07-.298.018-.605-.045-.899a1.48 1.48 0 0 0-.308-.65c-.136-.158-.325-.257-.51-.35a.936.936 0 0 0-.645-.084c-.297.066-.602.088-.898.158-.232.05-.47.088-.708.074a.56.56 0 0 1-.384-.167c-.078-.08-.15-.19-.115-.304a.29.29 0 0 1 .16-.14c.077-.013.152.017.225.036.284.077.57.176.871.16a.366.366 0 0 0 .282-.16c.057-.09.034-.207-.021-.292a1.864 1.864 0 0 0-.456-.502c-.217-.151-.447-.288-.64-.47a2.855 2.855 0 0 0-.578-.407c-.19-.104-.408-.141-.62-.181-.159-.03-.317.006-.475.022a.405.405 0 0 1-.412-.317v-.022c.092-.24.38-.279.607-.3.27-.026.514.115.73.255.227.145.45.298.645.484.103.089.205.207.352.22.125-.02.234-.163.177-.285-.065-.142-.201-.233-.304-.347-.197-.2-.32-.453-.5-.666a3.811 3.811 0 0 1-.405-.602c-.098-.186-.235-.35-.323-.542-.093-.205-.203-.407-.244-.63-.013-.1-.02-.216.05-.302.059-.078.151-.151.258-.137.118.017.21.104.274.197.094.15.117.331.124.505.01.2.109.382.153.577.03.134.064.27.13.39.09.166.209.315.326.463.093.11.221.224.377.215.11-.04.209-.133.223-.25a1.816 1.816 0 0 0-.02-.711c-.041-.215-.068-.432-.124-.644-.057-.212-.102-.431-.208-.627a4.45 4.45 0 0 0-.728-.967c-.145-.152-.366-.238-.449-.44-.045-.092-.003-.195.07-.259.098-.11.27-.104.4-.059.221.09.352.296.481.481.273.381.502.801.598 1.259.045.219.115.432.162.65.03.156.053.312.077.469.023.155 0 .311.003.468.014.24-.004.48.046.716.006.189.047.375.061.563.002.309.073.62.214.898.114.203.244.405.427.558a.547.547 0 0 0 .33.137c.18-.013.345-.164.352-.342.014-.208-.1-.394-.157-.588a5.633 5.633 0 0 0-.328-.796c-.045-.115-.1-.237-.082-.363.033-.115.146-.239.28-.206.178.061.288.237.33.409.042.181.071.367.062.553-.01.191.021.381.036.57.014.151.071.292.098.44.034.175.07.352.158.509.081.146.173.286.264.426.06.087.137.185.252.196.089-.011.155-.078.208-.142.14-.185.264-.393.28-.626.064-.41-.066-.812-.183-1.2a3.402 3.402 0 0 0-.261-.644c-.114-.211-.202-.437-.355-.624a9.768 9.768 0 0 1-.397-.514c-.305-.38-.659-.727-.911-1.145-.096-.157-.149-.333-.213-.503a1.848 1.848 0 0 1-.095-.506c-.016-.16-.042-.324-.008-.484a.406.406 0 0 1 .232-.274c.178-.075.364.114.357.282-.013.257-.102.504-.127.759-.014.156.057.302.115.444.049.11.13.234.263.253.14-.03.235-.155.28-.279.073-.197.143-.397.16-.607.019-.207.063-.411.083-.618 0-.15-.02-.3-.053-.446-.04-.17-.065-.341-.118-.508-.049-.152-.106-.303-.112-.463a.388.388 0 0 1 .05-.238c.06-.084.174-.148.278-.103.13.056.24.165.277.3.125.452.124.933.027 1.391-.04.21-.12.409-.155.62-.046.259-.12.515-.123.779-.017.172-.025.347.012.517.064.315.126.635.268.928.087.175.145.38.314.499.059.046.145.075.216.035.135-.063.206-.21.208-.35a1.647 1.647 0 0 0-.09-.63c-.06-.162-.118-.325-.177-.487-.063-.174-.071-.36-.11-.538a2.056 2.056 0 0 1-.053-.664c.029-.236-.025-.476.04-.707.05-.19.137-.387.312-.498.07-.04.165-.07.239-.024.096.06.174.166.164.28.014.312-.222.558-.28.853a4.3 4.3 0 0 0-.083.712c.004.152.023.325.143.437.064.065.168.12.258.07.181-.093.29-.276.368-.452a3.26 3.26 0 0 0 .186-.623c.046-.267.144-.53.117-.805-.025-.2-.042-.405-.114-.596-.09-.267-.228-.514-.36-.763-.11-.204-.25-.39-.36-.594-.09-.169-.193-.34-.208-.535-.007-.109-.01-.229.058-.322.068-.102.194-.184.324-.146a.478.478 0 0 1 .207.18c.084.147.088.32.143.477.05.148.08.3.118.452.105.357.233.708.312 1.072.034.117.084.229.144.334.036.065.1.125.18.124.064-.007.114-.057.149-.107.082-.122.132-.262.158-.405.057-.312.083-.63.085-.947.004-.168-.057-.328-.083-.492-.028-.154-.102-.294-.15-.442-.08-.243-.19-.488-.172-.748a.381.381 0 0 1 .159-.302c.068-.064.173-.068.259-.04.14.066.24.198.278.343.057.218.124.433.15.656.026.255.02.51.025.766.001.125-.002.252-.023.376-.068.411-.138.83-.318 1.21-.083.16-.172.315-.242.48-.115.26-.277.496-.437.73-.114.17-.182.361-.271.542a5.23 5.23 0 0 0-.382 1.02c-.057.248-.18.477-.228.728-.041.188-.016.38-.029.57-.016.246.025.49.034.734.04.24.12.473.23.691.079.159.156.332.313.431.139.095.34.12.486.024a.964.964 0 0 0 .376-.509c.137-.396.234-.812.213-1.232.003-.26-.049-.515-.081-.771-.032-.217.027-.433.068-.645a.892.892 0 0 1 .442-.613c.13-.088.32.077.264.214-.041.147-.143.266-.22.397a1.154 1.154 0 0 0-.185.519c0 .104.013.222.097.297.053.055.137.113.217.071.144-.064.258-.176.372-.281.412-.37.59-.913.696-1.432.06-.194.071-.397.116-.593.157-.478.34-.956.63-1.376.173-.245.347-.495.578-.693a.553.553 0 0 1 .481-.125c.103.046.2.156.164.273-.041.184-.18.328-.321.449-.324.245-.589.556-.83.876-.138.186-.269.386-.31.616-.013.087-.048.189.011.267.047.064.116.132.203.128.2-.006.397-.069.564-.175.385-.235.589-.663.972-.901.085-.053.209-.076.292-.008.066.052.133.128.116.217-.018.103-.102.18-.177.25a3.43 3.43 0 0 1-.488.355c-.186.108-.346.255-.542.347a4.24 4.24 0 0 0-.353.178c-.33.175-.681.351-.906.654-.124.2-.21.422-.345.616-.202.289-.471.53-.637.843a1.22 1.22 0 0 0-.206.66.29.29 0 0 0 .203.256c.104.017.203-.028.298-.06.264-.104.516-.24.734-.42.19-.154.383-.305.543-.49.149-.162.276-.344.444-.49a.566.566 0 0 1 .314-.147.38.38 0 0 1 .366.216c.038.094-.005.196-.054.278-.135.214-.355.355-.563.495-.208.138-.444.228-.662.35-.12.066-.24.132-.367.184-.239.1-.45.25-.686.354-.206.089-.385.223-.58.33-.225.124-.435.272-.64.423-.194.158-.395.308-.57.486-.14.141-.298.267-.408.433-.26.41-.433.872-.506 1.348-.085.753.436 1.135.484 1.176 1.42 1.192 2.932 1.723 4.318 1.358 3.352-.884 4.686-6.699 2.976-12.988z"
      fill="url(#a)" transform="translate(0 .5)"/>
    <g fill-rule="nonzero">
      <path
        d="M32.342 22.128c1.42-.577 2.544-1.418 3.372-2.52.829-1.103 1.243-2.42 1.243-3.953 0-1.323-.29-2.415-.87-3.276-.581-.86-1.425-1.56-2.533-2.095-1.109-.535-2.564-1.012-4.367-1.433-.954-.23-1.7-.498-2.238-.803-.54-.304-.808-.73-.808-1.276 0-.483.212-.866.637-1.15.424-.283.989-.425 1.694-.425.746 0 1.383.195 1.911.583.172.126.322.265.449.415a2.325 2.325 0 0 0 2.174.79c2.49-.433 3.33-3.656 1.352-5.25l-.043-.034C32.885.567 31.05 0 28.814 0c-1.679 0-3.197.294-4.554.882-1.357.588-2.43 1.449-3.217 2.583-.788 1.134-1.18 2.478-1.18 4.031 0 1.827.59 3.26 1.77 4.3 1.182 1.04 3.067 1.874 5.658 2.504 1.119.273 1.963.547 2.533.82.57.272.855.66.855 1.165 0 1.008-.953 1.512-2.86 1.512-1.036 0-1.88-.246-2.533-.74a2.694 2.694 0 0 1-.681-.735c-.423-.687-1.184-1.08-1.974-.963-2.81.415-3.781 4.048-1.541 5.804l.046.036c1.554 1.197 3.72 1.795 6.497 1.795 1.72 0 3.29-.289 4.71-.866z"
        fill="url(#b)" transform="translate(23 .5)"/>
      <path
        d="M3.046 22.919c1.682 0 3.046-1.382 3.046-3.087v-2.363c0-1.026.82-2.413 1.834-2.413 1.989 0 3.77-.283 5.346-.85 1.574-.567 2.818-1.428 3.73-2.583.91-1.155 1.367-2.583 1.367-4.284C18.369 2.446 15.032 0 8.36 0H5.807C2.599 0 0 2.635 0 5.885V19.83c0 1.706 1.363 3.088 3.046 3.088z"
        fill="url(#c)" transform="translate(23 .5)"/>
      <path
        d="M49.143 21.03v-5.476c0-1.853.5-3.671 1.447-5.257l3.614-6.047c1.098-1.838-.208-4.186-2.327-4.186-1.1 0-2.113.604-2.648 1.577l-1.64 2.987a1.665 1.665 0 0 1-2.897.054l-1.879-3.14a3.021 3.021 0 0 0-2.59-1.478h-.491c-2.133 0-3.436 2.374-2.313 4.211l3.863 6.31a10.245 10.245 0 0 1 1.504 5.35v5.094c0 1.05.84 1.9 1.875 1.9h2.606a1.888 1.888 0 0 0 1.876-1.9z"
        fill="url(#d)" transform="translate(23 .5)"/>
      <path
        d="M74.9 21.252 67.052 2.544A4.026 4.026 0 0 0 63.346.06a4.026 4.026 0 0 0-3.685 2.436l-8.148 18.742c-.361.83.239 1.763 1.133 1.763h3.706c.503 0 .955-.309 1.146-.78l1.027-2.543c.19-.472.643-.78 1.146-.78h7.088c.51 0 .966.315 1.153.795l.975 2.512c.186.48.644.796 1.152.796h3.72c.89 0 1.488-.919 1.141-1.748z"
        fill="url(#e)" transform="translate(23 .5)"/>
    </g>
  </g>
</svg>
