<?xml version="1.0" standalone="no"?>
<!DOCTYPE svg PUBLIC "-//W3C//DTD SVG 1.1//EN" "http://www.w3.org/Graphics/SVG/1.1/DTD/svg11.dtd" >
<svg xmlns="http://www.w3.org/2000/svg">
  <metadata>Generated by IcoMoon</metadata>
  <defs>
    <font id="PSYA-font-icon" horiz-adv-x="1024">
      <font-face units-per-em="1024" ascent="960" descent="-64"/>
      <missing-glyph horiz-adv-x="1024"/>
      <glyph unicode="&#x20;" horiz-adv-x="512" d=""/>
      <glyph unicode="&#xe900;" glyph-name="Eye-Close"
             d="M512 689.778c159.107 0 295.614-96.767 353.878-234.658-58.264-137.908-194.77-234.675-353.878-234.675s-295.614 96.767-353.878 234.658c58.264 137.908 194.77 234.675 353.878 234.675zM512 657.778c-136.311 0-258.192-78.19-316.507-197.768l-2.33-4.888 2.329-4.923c56.928-116.721 174.432-194.008 306.797-197.622l9.711-0.132c136.311 0 258.192 78.19 316.507 197.768l2.288 4.909-2.287 4.901c-56.928 116.721-174.432 194.008-306.797 197.622l-9.711 0.132zM512 625.778c94.257 0 170.667-76.41 170.667-170.667s-76.41-170.667-170.667-170.667c-94.257 0-170.667 76.41-170.667 170.667s76.41 170.667 170.667 170.667zM512 593.778c-76.583 0-138.667-62.083-138.667-138.667s62.083-138.667 138.667-138.667c76.583 0 138.667 62.083 138.667 138.667s-62.083 138.667-138.667 138.667zM756.686 722.425c6.248 6.248 16.379 6.248 22.627 0 5.554-5.554 6.171-14.176 1.851-20.411l-1.851-2.216-512-512c-6.248-6.248-16.379-6.248-22.627 0-5.554 5.554-6.171 14.176-1.851 20.411l1.851 2.216 512 512z"/>
      <glyph unicode="&#xe901;" glyph-name="Home-Focused"
             d="M478.042 842.634c18.719 14.275 44.188 15.226 63.806 2.855l4.11-2.855 330.667-252.167c12.501-9.534 20.354-23.826 21.8-39.324l0.242-5.206v-421.493c0-29.382-22.628-53.478-51.407-55.814l-4.593-0.186h-222.654c-13.255 0-24 10.745-24 24 0 12.15 9.029 22.192 20.743 23.781l3.257 0.219h222.654c3.787 0 6.96 2.631 7.789 6.166l0.211 1.834v421.493c0 1.872-0.655 3.663-1.82 5.080l-1.329 1.281-330.667 252.167c-2.292 1.748-5.293 2.098-7.868 1.049l-1.834-1.049-330.667-252.167c-1.488-1.135-2.515-2.742-2.936-4.527l-0.213-1.834v-421.493c0-3.787 2.631-6.96 6.166-7.789l1.834-0.211h224c13.255 0 24-10.745 24-24 0-12.15-9.029-22.192-20.743-23.781l-3.257-0.219h-224c-29.382 0-53.478 22.628-55.814 51.407l-0.186 4.593v421.493c0 15.722 6.603 30.633 18.049 41.18l3.993 3.349 330.667 252.167zM597.333 585.778c13.255 0 24-10.745 24-24 0-12.15-9.029-22.192-20.743-23.781l-3.257-0.219h-170.667c-13.255 0-24 10.745-24 24 0 12.15 9.029 22.192 20.743 23.781l3.257 0.219h170.667zM586.667 418.631c-8.034 0-15.975-1.729-23.282-5.069l-149.333-68.264c-19.933-9.112-32.718-29.014-32.718-50.931v-249.63c0-30.928 25.072-56 56-56 8.034 0 15.975 1.729 23.282 5.069l149.333 68.264c19.933 9.112 32.718 29.014 32.718 50.931v249.63c0 30.928-25.072 56-56 56zM586.667 370.631c4.418 0 8-3.582 8-8v-249.63c0-3.131-1.826-5.974-4.674-7.276l-149.333-68.264c-1.044-0.477-2.178-0.724-3.326-0.724-4.418 0-8 3.582-8 8v249.63c0 3.131 1.826 5.974 4.674 7.276l149.333 68.264c1.044 0.477 2.178 0.724 3.326 0.724z"/>
      <glyph unicode="&#xe902;" glyph-name="Blog"
             d="M789.333 855.111h-554.667c-32.401 0-58.667-26.266-58.667-58.667v-682.667c0-32.401 26.266-58.667 58.667-58.667h554.667c32.401 0 58.667 26.266 58.667 58.667v682.667c0 32.401-26.266 58.667-58.667 58.667zM234.667 823.111h554.667c14.728 0 26.667-11.939 26.667-26.667v-682.667c0-14.728-11.939-26.667-26.667-26.667h-554.667c-14.728 0-26.667 11.939-26.667 26.667v682.667c0 14.728 11.939 26.667 26.667 26.667zM704 769.778h-170.667c-32.401 0-58.667-26.266-58.667-58.667v-170.667c0-32.401 26.266-58.667 58.667-58.667h170.667c32.401 0 58.667 26.266 58.667 58.667v170.667c0 32.401-26.266 58.667-58.667 58.667zM533.333 737.778h170.667c14.728 0 26.667-11.939 26.667-26.667v-170.667c0-14.728-11.939-26.667-26.667-26.667h-170.667c-14.728 0-26.667 11.939-26.667 26.667v170.667c0 14.728 11.939 26.667 26.667 26.667zM405.333 727.111c8.837 0 16-7.163 16-16 0-7.855-5.66-14.387-13.124-15.742l-2.876-0.258h-128c-8.837 0-16 7.163-16 16 0 7.855 5.66 14.387 13.124 15.742l2.876 0.258h128zM405.333 556.444c8.837 0 16-7.163 16-16 0-7.855-5.66-14.387-13.124-15.742l-2.876-0.258h-128c-8.837 0-16 7.163-16 16 0 7.855 5.66 14.387 13.124 15.742l2.876 0.258h128zM725.333 385.778c8.837 0 16-7.163 16-16 0-7.855-5.66-14.387-13.124-15.742l-2.876-0.258h-448c-8.837 0-16 7.163-16 16 0 7.855 5.66 14.387 13.124 15.742l2.876 0.258h448zM725.333 215.111c8.837 0 16-7.163 16-16 0-7.855-5.66-14.387-13.124-15.742l-2.876-0.258h-448c-8.837 0-16 7.163-16 16 0 7.855 5.66 14.387 13.124 15.742l2.876 0.258h448z"/>
      <glyph unicode="&#xe903;" glyph-name="Blog-Focused"
             d="M768 863.111h-256c-48.601 0-88-39.399-88-88v-256c0-48.601 39.399-88 88-88h256c48.601 0 88 39.399 88 88v256c0 48.601-39.399 88-88 88zM512 815.111h256c22.091 0 40-17.909 40-40v-256c0-22.091-17.909-40-40-40h-256c-22.091 0-40 17.909-40 40v256c0 22.091 17.909 40 40 40zM362.667 671.111c13.255 0 24-10.745 24-24 0-12.15-9.029-22.192-20.743-23.781l-3.257-0.219h-85.333c-13.255 0-24 10.745-24 24 0 12.15 9.029 22.192 20.743 23.781l3.257 0.219h85.333zM362.667 514.667c13.255 0 24-10.745 24-24 0-12.15-9.029-22.192-20.743-23.781l-3.257-0.219h-85.333c-13.255 0-24 10.745-24 24 0 12.15 9.029 22.192 20.743 23.781l3.257 0.219h85.333zM661.333 358.222c13.255 0 24-10.745 24-24 0-12.15-9.029-22.192-20.743-23.781l-3.257-0.219h-384c-13.255 0-24 10.745-24 24 0 12.15 9.029 22.192 20.743 23.781l3.257 0.219h384zM661.333 201.778c13.255 0 24-10.745 24-24 0-12.15-9.029-22.192-20.743-23.781l-3.257-0.219h-384c-13.255 0-24 10.745-24 24 0 12.15 9.029 22.192 20.743 23.781l3.257 0.219h384zM376.889 777.778c13.255 0 24-10.745 24-24 0-12.15-9.029-22.192-20.743-23.781l-3.257-0.219h-152.889c-3.787 0-6.96-2.631-7.789-6.166l-0.211-1.834v-618.667c0-3.787 2.631-6.96 6.166-7.789l1.834-0.211h490.667c3.787 0 6.96 2.631 7.789 6.166l0.211 1.834v274.788c0 13.255 10.745 24 24 24 12.15 0 22.192-9.029 23.781-20.743l0.219-3.257v-274.788c0-29.382-22.628-53.478-51.407-55.814l-4.593-0.186h-490.667c-29.382 0-53.478 22.628-55.814 51.407l-0.186 4.593v618.667c0 29.382 22.628 53.478 51.407 55.814l4.593 0.186h152.889z"/>
      <glyph unicode="&#xe904;" glyph-name="Suggestion"
             d="M789.333 855.111h-554.667c-32.401 0-58.667-26.266-58.667-58.667v-682.667c0-32.401 26.266-58.667 58.667-58.667h554.667c32.401 0 58.667 26.266 58.667 58.667v682.667c0 32.401-26.266 58.667-58.667 58.667zM234.667 823.111h554.667c14.728 0 26.667-11.939 26.667-26.667v-682.667c0-14.728-11.939-26.667-26.667-26.667h-554.667c-14.728 0-26.667 11.939-26.667 26.667v682.667c0 14.728 11.939 26.667 26.667 26.667zM725.333 215.111c8.837 0 16-7.163 16-16 0-7.855-5.66-14.387-13.124-15.742l-2.876-0.258h-448c-8.837 0-16 7.163-16 16 0 7.855 5.66 14.387 13.124 15.742l2.876 0.258h448zM493.581 743.59c5.944 10.173 19.010 13.6 29.182 7.656 2.112-1.234 3.988-2.817 5.552-4.674l2.104-2.981 64.491-110.363 124.891-27.23c11.512-2.51 18.809-13.877 16.299-25.388-0.521-2.39-1.447-4.663-2.73-6.725l-2.185-2.922-85.033-95.439 12.696-127.193c1.17-11.724-7.385-22.176-19.109-23.347-2.434-0.243-4.882-0.065-7.239 0.518l-3.454 1.176-117.044 51.379-117.044-51.379c-10.788-4.736-23.373 0.171-28.109 10.959-0.983 2.24-1.57 4.623-1.744 7.045l0.051 3.649 12.696 127.193-85.033 95.439c-7.838 8.797-7.060 22.282 1.737 30.12 1.826 1.627 3.912 2.922 6.161 3.836l3.486 1.079 124.891 27.23 64.491 110.363zM574.368 604.954l-62.368 106.765-62.368-106.765-120.8-26.323 82.254-92.309-12.27-122.987 113.184 49.669 113.152-49.669-12.238 122.987 82.222 92.309-120.768 26.323z"/>
      <glyph unicode="&#xe905;" glyph-name="Suggestion-Focused"
             d="M661.333 265.778c13.255 0 24-10.745 24-24 0-12.15-9.029-22.192-20.743-23.781l-3.257-0.219h-384c-13.255 0-24 10.745-24 24 0 12.15 9.029 22.192 20.743 23.781l3.257 0.219h384zM579.892 878.246c6.499 11.121 20.783 14.869 31.904 8.37 2.598-1.518 4.869-3.519 6.695-5.886l1.675-2.484 70.506-120.658 136.54-29.77c12.585-2.744 20.563-15.171 17.819-27.756-0.641-2.939-1.842-5.718-3.529-8.187l-1.845-2.36-92.965-104.341 13.88-139.056c1.279-12.817-8.074-24.245-20.891-25.524-2.994-0.299-6.007-0.015-8.876 0.826l-2.815 1.026-127.961 56.172-127.961-56.172c-11.795-5.178-25.553 0.187-30.731 11.981-1.209 2.755-1.87 5.709-1.957 8.697l0.105 2.994 13.88 139.056-92.965 104.341c-8.569 9.617-7.719 24.36 1.899 32.929 2.246 2.001 4.851 3.543 7.667 4.549l2.88 0.825 136.54 29.77 70.506 120.658zM659.86 715.179l-59.828 102.428-59.834-102.428-115.878-25.252 78.901-88.553-11.797-117.975 108.605 47.639 108.579-47.639-11.77 117.975 78.874 88.553-115.852 25.252zM396.245 799.111c13.255 0 24-10.745 24-24 0-12.15-9.029-22.192-20.743-23.781l-3.257-0.219h-172.245c-3.787 0-6.96-2.631-7.789-6.166l-0.211-1.834v-618.667c0-3.787 2.631-6.96 6.166-7.789l1.834-0.211h490.667c3.787 0 6.96 2.631 7.789 6.166l0.211 1.834v235.636c0 13.255 10.745 24 24 24 12.15 0 22.192-9.029 23.781-20.743l0.219-3.257v-235.636c0-29.382-22.628-53.478-51.407-55.814l-4.593-0.186h-490.667c-29.382 0-53.478 22.628-55.814 51.407l-0.186 4.593v618.667c0 29.382 22.628 53.478 51.407 55.814l4.593 0.186h172.245z"/>
      <glyph unicode="&#xe906;" glyph-name="Test"
             d="M789.333 855.111h-554.667c-32.401 0-58.667-26.266-58.667-58.667v-682.667c0-32.401 26.266-58.667 58.667-58.667h554.667c32.401 0 58.667 26.266 58.667 58.667v682.667c0 32.401-26.266 58.667-58.667 58.667zM234.667 823.111h554.667c14.728 0 26.667-11.939 26.667-26.667v-682.667c0-14.728-11.939-26.667-26.667-26.667h-554.667c-14.728 0-26.667 11.939-26.667 26.667v682.667c0 14.728 11.939 26.667 26.667 26.667zM725.333 769.778h-85.333c-20.619 0-37.333-16.715-37.333-37.333v-85.333c0-20.619 16.715-37.333 37.333-37.333h85.333c20.619 0 37.333 16.715 37.333 37.333v85.333c0 20.619-16.715 37.333-37.333 37.333zM640 737.778h85.333c2.946 0 5.333-2.388 5.333-5.333v-85.333c0-2.946-2.388-5.333-5.333-5.333h-85.333c-2.946 0-5.333 2.388-5.333 5.333v85.333c0 2.946 2.388 5.333 5.333 5.333zM725.333 535.111h-85.333c-20.619 0-37.333-16.715-37.333-37.333v-85.333c0-20.619 16.715-37.333 37.333-37.333h85.333c20.619 0 37.333 16.715 37.333 37.333v85.333c0 20.619-16.715 37.333-37.333 37.333zM640 503.111h85.333c2.946 0 5.333-2.388 5.333-5.333v-85.333c0-2.946-2.388-5.333-5.333-5.333h-85.333c-2.946 0-5.333 2.388-5.333 5.333v85.333c0 2.946 2.388 5.333 5.333 5.333zM725.333 300.444h-85.333c-20.619 0-37.333-16.715-37.333-37.333v-85.333c0-20.619 16.715-37.333 37.333-37.333h85.333c20.619 0 37.333 16.715 37.333 37.333v85.333c0 20.619-16.715 37.333-37.333 37.333zM640 268.444h85.333c2.946 0 5.333-2.388 5.333-5.333v-85.333c0-2.946-2.388-5.333-5.333-5.333h-85.333c-2.946 0-5.333 2.388-5.333 5.333v85.333c0 2.946 2.388 5.333 5.333 5.333zM533.333 471.111c8.837 0 16-7.163 16-16 0-7.855-5.66-14.387-13.124-15.742l-2.876-0.258h-256c-8.837 0-16 7.163-16 16 0 7.855 5.66 14.387 13.124 15.742l2.876 0.258h256zM533.333 705.778c8.837 0 16-7.163 16-16 0-7.855-5.66-14.387-13.124-15.742l-2.876-0.258h-256c-8.837 0-16 7.163-16 16 0 7.855 5.66 14.387 13.124 15.742l2.876 0.258h256zM533.333 236.444c8.837 0 16-7.163 16-16 0-7.855-5.66-14.387-13.124-15.742l-2.876-0.258h-256c-8.837 0-16 7.163-16 16 0 7.855 5.66 14.387 13.124 15.742l2.876 0.258h256z"/>
      <glyph unicode="&#xe907;" glyph-name="Test-Focused"
             d="M789.333 863.111h-554.667c-36.819 0-66.667-29.848-66.667-66.667v-682.667c0-36.819 29.848-66.667 66.667-66.667h554.667c36.819 0 66.667 29.848 66.667 66.667v682.667c0 36.819-29.848 66.667-66.667 66.667zM234.667 815.111h554.667c10.309 0 18.667-8.357 18.667-18.667v-682.667c0-10.309-8.357-18.667-18.667-18.667h-554.667c-10.309 0-18.667 8.357-18.667 18.667v682.667c0 10.309 8.357 18.667 18.667 18.667zM732.444 777.778h-56.889c-21.11 0-38.222-17.113-38.222-38.222v-56.889c0-21.11 17.113-38.222 38.222-38.222h56.889c21.11 0 38.222 17.113 38.222 38.222v56.889c0 21.11-17.113 38.222-38.222 38.222zM722.656 729.799v-37.344h-37.344v37.344h37.344zM711.111 585.778h-142.222c-32.892 0-59.556-26.664-59.556-59.556v-142.222c0-32.892 26.664-59.556 59.556-59.556h142.222c32.892 0 59.556 26.664 59.556 59.556v142.222c0 32.892-26.664 59.556-59.556 59.556zM568.889 537.778h142.222c6.382 0 11.556-5.174 11.556-11.556v-142.222c0-6.382-5.174-11.556-11.556-11.556h-142.222c-6.382 0-11.556 5.174-11.556 11.556v142.222c0 6.382 5.174 11.556 11.556 11.556zM732.444 265.778h-56.889c-21.11 0-38.222-17.113-38.222-38.222v-56.889c0-21.11 17.113-38.222 38.222-38.222h56.889c21.11 0 38.222 17.113 38.222 38.222v56.889c0 21.11-17.113 38.222-38.222 38.222zM722.656 217.799v-37.344h-37.344v37.344h37.344zM448 479.111c13.255 0 24-10.745 24-24 0-12.15-9.029-22.192-20.743-23.781l-3.257-0.219h-170.667c-13.255 0-24 10.745-24 24 0 12.15 9.029 22.192 20.743 23.781l3.257 0.219h170.667zM554.667 735.111c13.255 0 24-10.745 24-24 0-12.15-9.029-22.192-20.743-23.781l-3.257-0.219h-277.333c-13.255 0-24 10.745-24 24 0 12.15 9.029 22.192 20.743 23.781l3.257 0.219h277.333zM576 223.111c13.255 0 24-10.745 24-24 0-12.15-9.029-22.192-20.743-23.781l-3.257-0.219h-298.667c-13.255 0-24 10.745-24 24 0 12.15 9.029 22.192 20.743 23.781l3.257 0.219h298.667z"/>
      <glyph unicode="&#xe908;" glyph-name="Basket"
             d="M391.022 760.933c3.952 7.904 13.563 11.107 21.466 7.155 7.025-3.513 10.337-11.497 8.211-18.779l-1.056-2.688-85.333-170.667c-3.952-7.904-13.563-11.107-21.466-7.155-7.025 3.513-10.337 11.497-8.211 18.779l1.056 2.688 85.333 170.667zM632.977 760.933c-3.952 7.904-13.563 11.107-21.466 7.155-7.025-3.513-10.337-11.497-8.211-18.779l1.056-2.688 85.333-170.667c3.952-7.904 13.563-11.107 21.466-7.155 7.025 3.513 10.337 11.497 8.211 18.779l-1.056 2.688-85.333 170.667zM405.333 492.444c7.855 0 14.387-5.66 15.742-13.124l0.258-2.876v-213.333c0-8.837-7.163-16-16-16-7.855 0-14.387 5.66-15.742 13.124l-0.258 2.876v213.333c0 8.837 7.163 16 16 16zM618.667 492.444c7.855 0 14.387-5.66 15.742-13.124l0.258-2.876v-213.333c0-8.837-7.163-16-16-16-7.855 0-14.387 5.66-15.742 13.124l-0.258 2.876v213.333c0 8.837 7.163 16 16 16zM838.774 599.111h-653.14c-32.401 0-58.667-26.266-58.667-58.667 0-5.804 0.861-11.576 2.556-17.127l104.189-341.333c7.533-24.679 30.307-41.539 56.111-41.539h447.29c25.951 0 48.818 17.050 56.226 41.921l101.66 341.333c9.249 31.053-8.427 63.723-39.48 72.972-5.435 1.619-11.075 2.441-16.746 2.441zM185.634 567.111h653.14c2.578 0 5.141-0.374 7.612-1.109 14.115-4.204 22.149-19.054 17.945-33.169l-101.66-341.333c-3.367-11.305-13.761-19.055-25.557-19.055h-447.29c-11.729 0-22.081 7.664-25.505 18.881l-104.189 341.333c-0.77 2.523-1.162 5.147-1.162 7.785 0 14.728 11.939 26.667 26.667 26.667z"/>
      <glyph unicode="&#xe909;" glyph-name="Basket-Focused"
             d="M767.867 764.511c5.928 11.855 20.344 16.661 32.199 10.733 10.868-5.434 15.811-18 11.994-29.189l-1.26-3.011-85.333-170.667c-5.928-11.855-20.344-16.661-32.199-10.733-10.868 5.434-15.811 18-11.994 29.189l1.26 3.011 85.333 170.667zM256.133 764.511c-5.928 11.855-20.344 16.661-32.199 10.733-10.868-5.434-15.811-18-11.994-29.189l1.26-3.011 85.333-170.667c5.928-11.855 20.344-16.661 32.199-10.733 10.868 5.434 15.811 18 11.994 29.189l-1.26 3.011-85.333 170.667zM405.333 500.444c12.15 0 22.192-9.029 23.781-20.743l0.219-3.257v-213.333c0-13.255-10.745-24-24-24-12.15 0-22.192 9.029-23.781 20.743l-0.219 3.257v213.333c0 13.255 10.745 24 24 24zM618.667 500.444c12.15 0 22.192-9.029 23.781-20.743l0.219-3.257v-213.333c0-13.255-10.745-24-24-24-12.15 0-22.192 9.029-23.781 20.743l-0.219 3.257v213.333c0 13.255 10.745 24 24 24zM838.774 607.111h-653.14c-36.819 0-66.667-29.848-66.667-66.667 0-6.596 0.979-13.155 2.904-19.463l104.189-341.333c8.56-28.045 34.44-47.204 63.762-47.204h447.29c29.49 0 55.475 19.374 63.893 47.637l101.66 341.333c10.51 35.287-9.576 72.413-44.864 82.923-6.176 1.839-12.586 2.774-19.029 2.774zM185.634 559.111h653.14c1.804 0 3.599-0.262 5.328-0.777 9.88-2.943 15.505-13.338 12.562-23.218l-101.66-341.333c-2.357-7.914-9.633-13.338-17.89-13.338h-447.29c-8.21 0-15.457 5.365-17.853 13.217l-104.189 341.333c-0.539 1.766-0.813 3.603-0.813 5.45 0 10.309 8.357 18.667 18.667 18.667z"/>
      <glyph unicode="&#xe90a;" glyph-name="User"
             d="M512 817.778c106.039 0 192-85.961 192-192s-85.961-192-192-192c-106.039 0-192 85.961-192 192s85.961 192 192 192zM512 785.778c-88.366 0-160-71.634-160-160s71.634-160 160-160c88.366 0 160 71.634 160 160s-71.634 160-160 160zM708.923 385.778h-393.846c-76.954 0-139.077-64.608-139.077-144v-86.756c0-31.478 24.776-57.244 55.658-57.244h560.684c30.883 0 55.658 25.767 55.658 57.244v86.756c0 79.392-62.123 144-139.077 144zM315.077 353.778h393.846c58.994 0 107.077-50.007 107.077-112v-86.756c0-14.079-10.736-25.244-23.658-25.244h-560.684c-12.923 0-23.658 11.165-23.658 25.244v86.756c0 61.993 48.083 112 107.077 112z"/>
      <glyph unicode="&#xe90b;" glyph-name="User-Focused"
             d="M512 817.778c106.039 0 192-85.961 192-192s-85.961-192-192-192c-106.039 0-192 85.961-192 192s85.961 192 192 192zM512 769.778c-79.529 0-144-64.471-144-144s64.471-144 144-144c79.529 0 144 64.471 144 144s-64.471 144-144 144zM402.667 611.555c0 13.255 10.745 24 24 24s24-10.745 24-24c0-33.873 27.46-61.333 61.333-61.333s61.333 27.46 61.333 61.333c0 13.255 10.745 24 24 24s24-10.745 24-24c0-60.383-48.95-109.333-109.333-109.333s-109.333 48.95-109.333 109.333zM708.923 393.778h-393.846c-81.444 0-147.077-68.259-147.077-152v-86.756c0-35.827 28.286-65.244 63.658-65.244h560.684c35.373 0 63.658 29.417 63.658 65.244v86.756c0 83.741-65.633 152-147.077 152zM315.077 345.778h393.846c54.504 0 99.077-46.356 99.077-104v-86.756c0-9.73-7.226-17.244-15.658-17.244h-560.684c-8.433 0-15.658 7.515-15.658 17.244v86.756c0 57.644 44.573 104 99.077 104z"/>
      <glyph unicode="&#xe90c;" glyph-name="Group-Focused"
             d="M827.334 474.176c-43.983-35.617-105.247-39.023-152.629-9.745-11.276 6.967-14.769 21.757-7.801 33.032s21.757 14.769 33.032 7.801c30.16-18.636 69.181-16.466 97.19 6.215 10.376 8.402 18.42 18.899 23.763 30.771 12.949 28.774 8.883 62.611-11.325 87.566-16.458 20.324-40.952 31.538-66.62 31.184-13.254-0.183-24.146 10.413-24.329 23.667s10.413 24.146 23.667 24.329c40.228 0.555 78.767-17.090 104.585-48.972 31.721-39.172 38.109-92.33 17.794-137.471-8.408-18.682-21.082-35.22-37.327-48.376zM189.593 474.176c43.983-35.617 105.247-39.023 152.629-9.745 11.276 6.967 14.769 21.757 7.801 33.032s-21.757 14.769-33.032 7.801c-30.16-18.636-69.181-16.466-97.19 6.215-10.376 8.402-18.42 18.899-23.763 30.771-12.949 28.774-8.883 62.611 11.325 87.566 16.458 20.324 40.952 31.538 66.62 31.184 13.254-0.183 24.146 10.413 24.329 23.667s-10.413 24.146-23.667 24.329c-40.228 0.555-78.767-17.090-104.585-48.972-31.721-39.172-38.109-92.33-17.794-137.471 8.408-18.682 21.082-35.22 37.327-48.376zM512 839.111c109.966 0 199.111-89.145 199.111-199.111s-89.145-199.111-199.111-199.111c-109.966 0-199.111 89.145-199.111 199.111s89.145 199.111 199.111 199.111zM512 791.111c-83.456 0-151.111-67.655-151.111-151.111s67.655-151.111 151.111-151.111c83.456 0 151.111 67.655 151.111 151.111s-67.655 151.111-151.111 151.111zM704.547 408h-385.094c-79.426 0-144.342-61.375-144.342-137.778v-77.116c0-33.813 28.398-60.662 62.777-60.662h548.224c34.379 0 62.777 26.849 62.777 60.662v77.116c0 76.403-64.916 137.778-144.342 137.778zM319.453 360h385.094c53.5 0 96.342-40.505 96.342-89.778v-77.116c0-6.683-6.324-12.662-14.777-12.662h-548.224c-8.453 0-14.777 5.979-14.777 12.662v77.116c0 49.273 42.842 89.778 96.342 89.778zM832 436.444c58.37 0 106.057-45.741 109.172-103.335l0.162-5.999v-42.667c0-36.819-29.848-66.667-66.667-66.667-13.255 0-24 10.745-24 24 0 12.15 9.029 22.192 20.743 23.781l3.257 0.219c9.278 0 16.976 6.769 18.422 15.639l0.244 3.028v42.667c0 32.26-24.907 58.704-56.54 61.149l-4.793 0.185h-42.316c-13.255 0-24 10.745-24 24 0 12.15 9.029 22.192 20.743 23.781l3.257 0.219h42.316zM192.351 436.444c-58.37 0-106.057-45.741-109.172-103.335l-0.162-5.999v-42.667c0-36.819 29.848-66.667 66.667-66.667 13.255 0 24 10.745 24 24 0 12.15-9.029 22.192-20.743 23.781l-3.257 0.219c-9.278 0-16.976 6.769-18.422 15.639l-0.244 3.028v42.667c0 32.26 24.907 58.704 56.54 61.149l4.793 0.185h42.316c13.255 0 24 10.745 24 24 0 12.15-9.029 22.192-20.743 23.781l-3.257 0.219h-42.316z"/>
      <glyph unicode="&#xe90d;" glyph-name="Group"
             d="M822.297 480.39c-44.711-36.206-108.087-36.759-153.256-2.377-7.031 5.352-8.393 15.391-3.041 22.422s15.391 8.393 22.422 3.041c33.499-25.498 80.553-25.088 113.736 1.783 11.354 9.194 20.17 20.698 26.024 33.705 14.176 31.501 9.723 68.559-12.403 95.883-18.018 22.25-44.853 34.536-72.948 34.148-13.282-0.183-26.373-3.218-38.394-8.977-7.969-3.818-17.525-0.453-21.342 7.517s-0.453 17.525 7.517 21.342c16.228 7.774 33.887 11.868 51.779 12.115 37.801 0.521 74-16.051 98.258-46.007 29.802-36.803 35.803-86.74 16.716-129.154-7.897-17.547-19.799-33.078-35.067-45.442zM200.958 480.39c44.711-36.206 108.087-36.759 153.256-2.377 7.031 5.352 8.393 15.391 3.041 22.422s-15.391 8.393-22.422 3.041c-33.499-25.498-80.553-25.088-113.736 1.783-11.354 9.194-20.17 20.698-26.024 33.705-14.176 31.501-9.723 68.559 12.403 95.883 18.018 22.25 44.853 34.536 72.948 34.148 13.282-0.183 26.373-3.218 38.394-8.977 7.969-3.818 17.525-0.453 21.342 7.517s0.453 17.525-7.517 21.342c-16.228 7.774-33.887 11.868-51.779 12.115-37.801 0.521-74-16.051-98.258-46.007-29.802-36.803-35.803-86.74-16.716-129.154 7.897-17.547 19.799-33.078 35.067-45.442zM512 753.778c82.475 0 149.333-66.859 149.333-149.333s-66.859-149.333-149.333-149.333c-82.475 0-149.333 66.859-149.333 149.333s66.859 149.333 149.333 149.333zM512 721.778c-64.801 0-117.333-52.532-117.333-117.333s52.532-117.333 117.333-117.333c64.801 0 117.333 52.532 117.333 117.333s-52.532 117.333-117.333 117.333zM656.41 428.444h-288.821c-58.489 0-106.256-45.162-106.256-101.333v-57.837c0-24.229 20.379-43.496 45.083-43.496h411.168c24.704 0 45.083 19.267 45.083 43.496v57.837c0 56.172-47.767 101.333-106.256 101.333zM367.59 396.444h288.821c41.205 0 74.256-31.248 74.256-69.333v-57.837c0-6.142-5.663-11.496-13.083-11.496h-411.168c-7.42 0-13.083 5.354-13.083 11.496v57.837c0 38.085 33.051 69.333 74.256 69.333zM832 428.444c54.035 0 98.192-42.294 101.173-95.583l0.16-5.75v-42.667c0-30.781-23.705-56.025-53.855-58.472l-4.812-0.194h-65.020c-8.837 0-16 7.163-16 16 0 7.855 5.66 14.387 13.124 15.742l2.876 0.258h65.020c13.595 0 24.813 10.173 26.459 23.322l0.208 3.345v42.667c0 36.627-28.401 66.62-64.382 69.159l-4.952 0.174h-42.316c-8.837 0-16 7.163-16 16 0 7.855 5.66 14.387 13.124 15.742l2.876 0.258h42.316zM192.351 428.444c-54.035 0-98.192-42.294-101.173-95.583l-0.16-5.75v-42.667c0-30.781 23.705-56.025 53.855-58.472l4.812-0.194h65.020c8.837 0 16 7.163 16 16 0 7.855-5.66 14.387-13.124 15.742l-2.876 0.258h-65.020c-13.595 0-24.813 10.173-26.459 23.322l-0.208 3.345v42.667c0 36.627 28.401 66.62 64.382 69.159l4.952 0.174h42.316c8.837 0 16 7.163 16 16 0 7.855-5.66 14.387-13.124 15.742l-2.876 0.258h-42.316z"/>
      <glyph unicode="&#xe90e;" glyph-name="Exit"
             d="M535.469 812.444c8.837 0 16-7.163 16-16 0-7.855-5.66-14.387-13.124-15.742l-2.876-0.258h-226.136c-7.855 0-14.387-5.66-15.742-13.124l-0.258-2.876v-618.667c0-7.855 5.66-14.387 13.124-15.742l2.876-0.258h226.136c8.837 0 16-7.163 16-16 0-7.855-5.66-14.387-13.124-15.742l-2.876-0.258h-226.136c-24.95 0-45.454 19.036-47.78 43.377l-0.22 4.623v618.667c0 24.95 19.036 45.454 43.377 47.78l4.623 0.22h226.136zM627.506 251.773c-5.52-6.9-4.401-16.969 2.499-22.489 6.134-4.907 14.771-4.568 20.491 0.414l1.998 2.085 149.344 186.68c15.998 19.998 17.065 47.852 3.2 68.897l-3.2 4.4-149.344 186.68c-5.52 6.9-15.589 8.019-22.489 2.499-6.134-4.907-7.699-13.408-4.094-20.082l1.595-2.407 149.344-186.68c6.926-8.657 7.695-20.553 2.309-29.93l-2.309-3.387-149.344-186.68zM789.333 471.111c8.837 0 16-7.163 16-16 0-7.855-5.66-14.387-13.124-15.742l-2.876-0.258h-384c-8.837 0-16 7.163-16 16 0 7.855 5.66 14.387 13.124 15.742l2.876 0.258h384z"/>
      <glyph unicode="&#xe90f;" glyph-name="Exit-Focused"
             d="M471.469 820.444c13.255 0 24-10.745 24-24 0-12.15-9.029-22.192-20.743-23.781l-3.257-0.219h-226.136c-3.787 0-6.96-2.631-7.789-6.166l-0.211-1.834v-618.667c0-3.787 2.631-6.96 6.166-7.789l1.834-0.211h226.136c13.255 0 24-10.745 24-24 0-12.15-9.029-22.192-20.743-23.781l-3.257-0.219h-226.136c-29.382 0-53.478 22.628-55.814 51.407l-0.186 4.593v618.667c0 29.382 22.628 53.478 51.407 55.814l4.593 0.186h226.136zM642.592 256.77c-8.28-10.35-6.602-25.453 3.748-33.734 9.409-7.527 22.747-6.825 31.315 1.141l2.419 2.607 149.344 186.68c18.261 22.826 19.402 54.66 3.424 78.612l-3.424 4.68-149.344 186.68c-8.28 10.35-23.383 12.028-33.734 3.748-9.409-7.527-11.652-20.694-5.76-30.802l2.012-2.932 149.344-186.68c4.772-5.965 5.369-14.128 1.79-20.642l-1.79-2.68-149.344-186.68zM810.667 479.111c13.255 0 24-10.745 24-24 0-12.15-9.029-22.192-20.743-23.781l-3.257-0.219h-384c-13.255 0-24 10.745-24 24 0 12.15 9.029 22.192 20.743 23.781l3.257 0.219h384z"/>
      <glyph unicode="&#xe910;" glyph-name="Burger-Menu"
             d="M789.333 684.444c8.837 0 16-7.163 16-16 0-7.855-5.66-14.387-13.124-15.742l-2.876-0.258h-554.667c-8.837 0-16 7.163-16 16 0 7.855 5.66 14.387 13.124 15.742l2.876 0.258h554.667zM618.667 471.111c8.837 0 16-7.163 16-16 0-7.855-5.66-14.387-13.124-15.742l-2.876-0.258h-384c-8.837 0-16 7.163-16 16 0 7.855 5.66 14.387 13.124 15.742l2.876 0.258h384zM789.333 257.778c8.837 0 16-7.163 16-16 0-7.855-5.66-14.387-13.124-15.742l-2.876-0.258h-554.667c-8.837 0-16 7.163-16 16 0 7.855 5.66 14.387 13.124 15.742l2.876 0.258h554.667z"/>
      <glyph unicode="&#xe911;" glyph-name="More"
             d="M512 668.444c23.564 0 42.667-19.103 42.667-42.667s-19.103-42.667-42.667-42.667c-23.564 0-42.667 19.103-42.667 42.667s19.103 42.667 42.667 42.667zM512 497.671c23.564 0 42.667-19.103 42.667-42.667s-19.103-42.667-42.667-42.667c-23.564 0-42.667 19.103-42.667 42.667s19.103 42.667 42.667 42.667zM512 326.898c23.564 0 42.667-19.103 42.667-42.667s-19.103-42.667-42.667-42.667c-23.564 0-42.667 19.103-42.667 42.667s19.103 42.667 42.667 42.667z"/>
      <glyph unicode="&#xe912;" glyph-name="Edit"
             d="M832 236.444c8.837 0 16-7.163 16-16 0-7.855-5.66-14.387-13.124-15.742l-2.876-0.258h-640c-8.837 0-16 7.163-16 16 0 7.855 5.66 14.387 13.124 15.742l2.876 0.258h640zM661.651 691.072c7.238 5.068 17.215 3.309 22.284-3.929 4.505-6.434 3.616-15.032-1.721-20.423l-2.208-1.861-454.356-318.144c-7.238-5.068-17.215-3.309-22.284 3.929-4.505 6.434-3.616 15.032 1.721 20.423l2.208 1.861 454.356 318.144zM759.542 551.27c7.238 5.068 17.215 3.309 22.284-3.929 4.505-6.434 3.616-15.032-1.721-20.423l-2.208-1.861-454.356-318.144c-7.238-5.068-17.215-3.309-22.284 3.929-4.505 6.434-3.616 15.032 1.721 20.423l2.208 1.861 454.356 318.144zM201.566 365.637c3.211 8.232 12.488 12.303 20.721 9.091 7.318-2.855 11.347-10.502 9.896-17.948l-0.805-2.773-55.906-143.319c-3.211-8.232-12.488-12.303-20.721-9.091-7.318 2.855-11.347 10.502-9.896 17.948l0.805 2.773 55.906 143.319zM314.729 204.024c8.834 0.202 15.832 7.527 15.63 16.362-0.18 7.853-5.987 14.254-13.48 15.438l-2.881 0.192-153.797-3.517c-8.834-0.202-15.832-7.527-15.63-16.362 0.18-7.853 5.987-14.254 13.48-15.438l2.881-0.192 153.797 3.517zM712.554 725.753c45.241 31.678 107.801 20.39 139.732-25.213s21.142-108.25-24.099-139.928l-49.149-34.415-115.633 165.141 49.149 34.415zM785.967 572.091l23.614 16.511c30.396 21.283 37.783 63.177 16.5 93.572-20.396 29.129-59.721 37.126-89.715 19.010l-3.857-2.511-23.619-16.503 77.078-110.078zM237.877 394.342l116.245-166.015-26.213-18.354-116.245 166.015zM622.332 663.54l116.245-166.015-26.213-18.354-116.245 166.015z"/>
      <glyph unicode="&#xe913;" glyph-name="Up"
             d="M715.338 357.284c6.9-5.52 16.969-4.401 22.489 2.499 4.907 6.134 4.568 14.771-0.414 20.491l-2.085 1.998-186.68 149.344c-19.998 15.998-47.852 17.065-68.897 3.2l-4.4-3.2-186.68-149.344c-6.9-5.52-8.019-15.589-2.499-22.489 4.907-6.134 13.408-7.699 20.082-4.094l2.407 1.595 186.68 149.344c8.657 6.926 20.553 7.695 29.93 2.309l3.387-2.309 186.68-149.344z"/>
      <glyph unicode="&#xe914;" glyph-name="Left"
             d="M609.827 251.773c5.52-6.9 4.401-16.969-2.499-22.489-6.134-4.907-14.771-4.568-20.491 0.414l-1.998 2.085-149.344 186.68c-15.998 19.998-17.065 47.852-3.2 68.897l3.2 4.4 149.344 186.68c5.52 6.9 15.589 8.019 22.489 2.499 6.134-4.907 7.699-13.408 4.094-20.082l-1.595-2.407-149.344-186.68c-6.926-8.657-7.695-20.553-2.309-29.93l2.309-3.387 149.344-186.68z"/>
      <glyph unicode="&#xe915;" glyph-name="Down"
             d="M715.338 552.938c6.9 5.52 16.969 4.401 22.489-2.499 4.907-6.134 4.568-14.771-0.414-20.491l-2.085-1.998-186.68-149.344c-19.998-15.998-47.852-17.065-68.897-3.2l-4.4 3.2-186.68 149.344c-6.9 5.52-8.019 15.589-2.499 22.489 4.907 6.134 13.408 7.699 20.082 4.094l2.407-1.595 186.68-149.344c8.657-6.926 20.553-7.695 29.93-2.309l3.387 2.309 186.68 149.344z"/>
      <glyph unicode="&#xe916;" glyph-name="Right"
             d="M414.173 251.773c-5.52-6.9-4.401-16.969 2.499-22.489 6.134-4.907 14.771-4.568 20.491 0.414l1.998 2.085 149.344 186.68c15.998 19.998 17.065 47.852 3.2 68.897l-3.2 4.4-149.344 186.68c-5.52 6.9-15.589 8.019-22.489 2.499-6.134-4.907-7.699-13.408-4.094-20.082l1.595-2.407 149.344-186.68c6.926-8.657 7.695-20.553 2.309-29.93l-2.309-3.387-149.344-186.68z"/>
      <glyph unicode="&#xe917;" glyph-name="Tik"
             d="M211.893 377.757l138.682-131.091c21.925-20.725 55.736-21.301 78.315-2.053l3.469 3.204 388.425 388.425c6.248 6.248 6.248 16.379 0 22.627-5.554 5.554-14.176 6.171-20.411 1.851l-2.216-1.851-388.425-388.425c-9.422-9.422-24.186-10.345-34.653-2.631l-2.522 2.108-138.682 131.091c-6.422 6.070-16.548 5.785-22.618-0.636-5.396-5.708-5.77-14.344-1.276-20.455l1.913-2.163z"/>
      <glyph unicode="&#xe918;" glyph-name="Close"
             d="M698.782 664.52c6.248 6.248 16.379 6.248 22.627 0 5.554-5.554 6.171-14.176 1.851-20.411l-1.851-2.216-396.19-396.19c-6.248-6.248-16.379-6.248-22.627 0-5.554 5.554-6.171 14.176-1.851 20.411l1.851 2.216 396.19 396.19zM325.218 664.52c-6.248 6.248-16.379 6.248-22.627 0-5.554-5.554-6.171-14.176-1.851-20.411l1.851-2.216 396.19-396.19c6.248-6.248 16.379-6.248 22.627 0 5.554 5.554 6.171 14.176 1.851 20.411l-1.851 2.216-396.19 396.19z"/>
      <glyph unicode="&#xe919;" glyph-name="Minimize"
             d="M746.667 471.111c8.837 0 16-7.163 16-16 0-7.855-5.66-14.387-13.124-15.742l-2.876-0.258h-469.333c-8.837 0-16 7.163-16 16 0 7.855 5.66 14.387 13.124 15.742l2.876 0.258h469.333z"/>
      <glyph unicode="&#xe91a;" glyph-name="Download"
             d="M512 791.111c7.855 0 14.387-5.66 15.742-13.124l0.258-2.876v-469.333c0-8.837-7.163-16-16-16-7.855 0-14.387 5.66-15.742 13.124l-0.258 2.876v469.333c0 8.837 7.163 16 16 16zM874.667 193.778c8.837 0 16-7.163 16-16 0-7.855-5.66-14.387-13.124-15.742l-2.876-0.258h-725.333c-8.837 0-16 7.163-16 16 0 7.855 5.66 14.387 13.124 15.742l2.876 0.258h725.333zM715.338 467.605c6.9 5.52 16.969 4.401 22.489-2.499 4.907-6.134 4.568-14.771-0.414-20.491l-2.085-1.998-186.68-149.344c-19.998-15.998-47.852-17.065-68.897-3.2l-4.4 3.2-186.68 149.344c-6.9 5.52-8.019 15.589-2.499 22.489 4.907 6.134 13.408 7.699 20.082 4.094l2.407-1.595 186.68-149.344c8.657-6.926 20.553-7.695 29.93-2.309l3.387 2.309 186.68 149.344z"/>
      <glyph unicode="&#xe91b;" glyph-name="Upload"
             d="M512 791.111c7.855 0 14.387-5.66 15.742-13.124l0.258-2.876v-469.333c0-8.837-7.163-16-16-16-7.855 0-14.387 5.66-15.742 13.124l-0.258 2.876v469.333c0 8.837 7.163 16 16 16zM874.667 193.778c8.837 0 16-7.163 16-16 0-7.855-5.66-14.387-13.124-15.742l-2.876-0.258h-725.333c-8.837 0-16 7.163-16 16 0 7.855 5.66 14.387 13.124 15.742l2.876 0.258h725.333zM715.338 603.924c6.9-5.52 16.969-4.401 22.489 2.499 4.907 6.134 4.568 14.771-0.414 20.491l-2.085 1.998-186.68 149.344c-19.998 15.998-47.852 17.065-68.897 3.2l-4.4-3.2-186.68-149.344c-6.9-5.52-8.019-15.589-2.499-22.489 4.907-6.134 13.408-7.699 20.082-4.094l2.407 1.595 186.68 149.344c8.657 6.926 20.553 7.695 29.93 2.309l3.387-2.309 186.68-149.344z"/>
      <glyph unicode="&#xe91c;" glyph-name="Sort"
             d="M597.333 705.778c7.855 0 14.387-5.66 15.742-13.124l0.258-2.876v-469.333c0-8.837-7.163-16-16-16-7.855 0-14.387 5.66-15.742 13.124l-0.258 2.876v469.333c0 8.837 7.163 16 16 16zM490.667 705.778c8.837 0 16-7.163 16-16 0-7.855-5.66-14.387-13.124-15.742l-2.876-0.258h-298.667c-8.837 0-16 7.163-16 16 0 7.855 5.66 14.387 13.124 15.742l2.876 0.258h298.667zM490.667 599.111c8.837 0 16-7.163 16-16 0-7.855-5.66-14.387-13.124-15.742l-2.876-0.258h-234.853c-8.837 0-16 7.163-16 16 0 7.855 5.66 14.387 13.124 15.742l2.876 0.258h234.853zM490.667 492.444c8.837 0 16-7.163 16-16 0-7.855-5.66-14.387-13.124-15.742l-2.876-0.258h-149.333c-8.837 0-16 7.163-16 16 0 7.855 5.66 14.387 13.124 15.742l2.876 0.258h149.333zM800.672 382.272c6.9 5.52 16.969 4.401 22.489-2.499 4.907-6.134 4.568-14.771-0.414-20.491l-2.085-1.998-186.68-149.344c-19.998-15.998-47.852-17.065-68.897-3.2l-4.4 3.2-186.68 149.344c-6.9 5.52-8.019 15.589-2.499 22.489 4.907 6.134 13.408 7.699 20.082 4.094l2.407-1.595 186.68-149.344c8.657-6.926 20.553-7.695 29.93-2.309l3.387 2.309 186.68 149.344z"/>
      <glyph unicode="&#xe91d;" glyph-name="Eye-Open"
             d="M512 689.778c159.107 0 295.614-96.767 353.878-234.658-58.264-137.908-194.77-234.675-353.878-234.675s-295.614 96.767-353.878 234.658c58.264 137.908 194.77 234.675 353.878 234.675zM512 657.778c-136.311 0-258.192-78.19-316.507-197.768l-2.33-4.888 2.329-4.923c56.928-116.721 174.432-194.008 306.797-197.622l9.711-0.132c136.311 0 258.192 78.19 316.507 197.768l2.288 4.909-2.287 4.901c-56.928 116.721-174.432 194.008-306.797 197.622l-9.711 0.132zM512 625.778c94.257 0 170.667-76.41 170.667-170.667s-76.41-170.667-170.667-170.667c-94.257 0-170.667 76.41-170.667 170.667s76.41 170.667 170.667 170.667zM512 593.778c-76.583 0-138.667-62.083-138.667-138.667s62.083-138.667 138.667-138.667c76.583 0 138.667 62.083 138.667 138.667s-62.083 138.667-138.667 138.667z"/>
      <glyph unicode="&#xe91e;" glyph-name="Report"
             d="M789.333 855.111h-554.667c-32.401 0-58.667-26.266-58.667-58.667v-682.667c0-32.401 26.266-58.667 58.667-58.667h554.667c32.401 0 58.667 26.266 58.667 58.667v682.667c0 32.401-26.266 58.667-58.667 58.667zM234.667 823.111h554.667c14.728 0 26.667-11.939 26.667-26.667v-682.667c0-14.728-11.939-26.667-26.667-26.667h-554.667c-14.728 0-26.667 11.939-26.667 26.667v682.667c0 14.728 11.939 26.667 26.667 26.667zM725.333 215.111c8.837 0 16-7.163 16-16 0-7.855-5.66-14.387-13.124-15.742l-2.876-0.258h-448c-8.837 0-16 7.163-16 16 0 7.855 5.66 14.387 13.124 15.742l2.876 0.258h448zM485.466 752.144v-198.831l-143.259-142.044c-1.883 2.471-3.713 4.985-5.489 7.539-23.989 34.504-38.052 76.429-38.052 121.637 0 108.836 81.5 198.636 186.799 211.699zM453.44 712.135l-6.011-2.167c-68.659-26.135-116.762-92.656-116.762-169.524 0-25.013 5.060-49.231 14.638-71.522l2.983-6.516 105.152 104.256v145.472zM512 753.778c117.821 0 213.333-95.513 213.333-213.333s-95.513-213.333-213.333-213.333c-58.471 0-111.448 23.523-149.983 61.623l149.983 151.711v213.333zM544 718.951v-191.654l-134.72-136.25 2.583-1.817c26.816-17.804 58.102-28.276 91.098-29.898l9.039-0.222c100.148 0 181.333 81.186 181.333 181.333 0 88.503-63.403 162.197-147.265 178.138l-2.068 0.369z"/>
      <glyph unicode="&#xe91f;" glyph-name="Report-Focused"
             d="M698.182 271.596c13.255 0 24-10.745 24-24 0-12.15-9.029-22.192-20.743-23.781l-3.257-0.219h-407.273c-13.255 0-24 10.745-24 24 0 12.15 9.029 22.192 20.743 23.781l3.257 0.219h407.273zM590.705 870.12v-238.597l-171.91-170.453-6.587 9.047c-28.787 41.405-45.662 91.714-45.662 145.965 0 130.603 97.8 238.363 224.159 254.039zM542.677 808.209l-3.388-1.425c-73.82-32.249-124.744-106.002-124.744-190.703 0-26.491 4.943-52.195 14.343-76.099l0.38-0.893 113.408 112.448v156.672zM622.545 872.081c141.385 0 256-114.615 256-256s-114.615-256-256-256c-70.165 0-133.737 28.228-179.98 73.947l179.98 182.053v256zM670.517 818.513l0.028-222.153-156.188-157.975 7.477-4.361c27.569-15.285 58.543-24.22 90.949-25.718l9.763-0.225c114.875 0 208 93.125 208 208 0 97.394-66.939 179.154-157.319 201.782l-2.709 0.65zM366.545 799.111c13.255 0 24-10.745 24-24 0-12.15-9.029-22.192-20.743-23.781l-3.257-0.219h-121.212c-3.787 0-6.96-2.631-7.789-6.166l-0.211-1.834v-618.667c0-3.787 2.631-6.96 6.166-7.789l1.834-0.211h490.667c3.787 0 6.96 2.631 7.789 6.166l0.211 1.834v216.316c0 13.255 10.745 24 24 24 12.15 0 22.192-9.029 23.781-20.743l0.219-3.257v-216.316c0-29.382-22.628-53.478-51.407-55.814l-4.593-0.186h-490.667c-29.382 0-53.478 22.628-55.814 51.407l-0.186 4.593v618.667c0 29.382 22.628 53.478 51.407 55.814l4.593 0.186h121.212z"/>
      <glyph unicode="&#xe920;" glyph-name="Search"
             d="M426.667 839.111c164.949 0 298.667-133.718 298.667-298.667s-133.718-298.667-298.667-298.667c-164.949 0-298.667 133.718-298.667 298.667s133.718 298.667 298.667 298.667zM426.667 807.111c-147.276 0-266.667-119.391-266.667-266.667s119.391-266.667 266.667-266.667c147.276 0 266.667 119.391 266.667 266.667s-119.391 266.667-266.667 266.667zM628.686 338.425c5.554 5.554 14.176 6.171 20.411 1.851l2.216-1.851 234.667-234.667c6.248-6.248 6.248-16.379 0-22.627-5.554-5.554-14.176-6.171-20.411-1.851l-2.216 1.851-234.667 234.667c-6.248 6.248-6.248 16.379 0 22.627z"/>
      <glyph unicode="&#xe921;" glyph-name="Alert"
             d="M512 839.111c212.077 0 384-171.923 384-384s-171.923-384-384-384c-212.077 0-384 171.923-384 384s171.923 384 384 384zM512 807.111c-194.404 0-352-157.596-352-352s157.596-352 352-352c194.404 0 352 157.596 352 352s-157.596 352-352 352zM512 263.111c11.782 0 21.333-9.551 21.333-21.333s-9.551-21.333-21.333-21.333c-11.782 0-21.333 9.551-21.333 21.333s9.551 21.333 21.333 21.333zM512 705.778c7.855 0 14.387-5.66 15.742-13.124l0.258-2.876v-341.333c0-8.837-7.163-16-16-16-7.855 0-14.387 5.66-15.742 13.124l-0.258 2.876v341.333c0 8.837 7.163 16 16 16z"/>
      <glyph unicode="&#xe922;" glyph-name="Participants"
             d="M789.333 855.111h-554.667c-32.401 0-58.667-26.266-58.667-58.667v-682.667c0-32.401 26.266-58.667 58.667-58.667h554.667c32.401 0 58.667 26.266 58.667 58.667v682.667c0 32.401-26.266 58.667-58.667 58.667zM234.667 823.111h554.667c14.728 0 26.667-11.939 26.667-26.667v-682.667c0-14.728-11.939-26.667-26.667-26.667h-554.667c-14.728 0-26.667 11.939-26.667 26.667v682.667c0 14.728 11.939 26.667 26.667 26.667zM704 215.111c8.837 0 16-7.163 16-16 0-7.855-5.66-14.387-13.124-15.742l-2.876-0.258h-384c-8.837 0-16 7.163-16 16 0 7.855 5.66 14.387 13.124 15.742l2.876 0.258h384zM512 753.778c58.91 0 106.667-47.756 106.667-106.667s-47.756-106.667-106.667-106.667c-58.91 0-106.667 47.756-106.667 106.667s47.756 106.667 106.667 106.667zM512 721.778c-41.237 0-74.667-33.429-74.667-74.667s33.429-74.667 74.667-74.667c41.237 0 74.667 33.429 74.667 74.667s-33.429 74.667-74.667 74.667zM617.026 513.778h-210.051c-46.142 0-81.641-46.149-81.641-101.333v-57.837c0-23.242 15.58-43.496 37.151-43.496h299.031c21.571 0 37.151 20.255 37.151 43.496v57.837c0 55.184-35.499 101.333-81.641 101.333zM406.974 481.778h210.051c26.363 0 49.641-30.261 49.641-69.333v-57.837c0-7.13-3.359-11.496-5.151-11.496h-299.031c-1.792 0-5.151 4.366-5.151 11.496v57.837c0 39.072 23.278 69.333 49.641 69.333z"/>
      <glyph unicode="&#xe923;" glyph-name="Done"
             d="M512 71.111c212.077 0 384 171.923 384 384s-171.923 384-384 384c-212.077 0-384-171.923-384-384s171.923-384 384-384zM512 103.111c-194.404 0-352 157.596-352 352s157.596 352 352 352c194.404 0 352-157.596 352-352s-157.596-352-352-352zM316.641 402.526l78.386-74.095c21.925-20.725 55.736-21.301 78.315-2.053l3.469 3.204 239.226 239.226c6.248 6.248 6.248 16.379 0 22.627-5.554 5.554-14.176 6.171-20.411 1.851l-2.216-1.851-239.226-239.226c-9.422-9.422-24.186-10.345-34.653-2.631l-2.522 2.108-78.386 74.095c-6.422 6.070-16.548 5.785-22.618-0.636-5.396-5.708-5.77-14.344-1.276-20.455l1.913-2.163z"/>
      <glyph unicode="&#xe924;" glyph-name="Participants-Focused"
             d="M661.333 265.778c13.255 0 24-10.745 24-24 0-12.15-9.029-22.192-20.743-23.781l-3.257-0.219h-384c-13.255 0-24 10.745-24 24 0 12.15 9.029 22.192 20.743 23.781l3.257 0.219h384zM618.667 881.778c70.692 0 128-57.308 128-128s-57.308-128-128-128c-70.692 0-128 57.308-128 128s57.308 128 128 128zM618.667 833.778c-44.183 0-80-35.817-80-80s35.817-80 80-80c44.183 0 80 35.817 80 80s-35.817 80-80 80zM749.949 607.111h-262.564c-58.786 0-106.051-49.156-106.051-109.333v-57.837c0-28.235 22.367-51.496 50.439-51.496h373.789c28.072 0 50.439 23.262 50.439 51.496v57.837c0 60.177-47.266 109.333-106.051 109.333zM487.385 559.111h262.564c31.846 0 58.051-27.254 58.051-61.333v-57.837c0-2.137-1.307-3.496-2.439-3.496h-373.789c-1.132 0-2.439 1.359-2.439 3.496v57.837c0 34.079 26.206 61.333 58.051 61.333zM432.356 777.778c13.255 0 24-10.745 24-24 0-12.15-9.029-22.192-20.743-23.781l-3.257-0.219h-208.356c-3.787 0-6.96-2.631-7.789-6.166l-0.211-1.834v-618.667c0-3.787 2.631-6.96 6.166-7.789l1.834-0.211h490.667c3.787 0 6.96 2.631 7.789 6.166l0.211 1.834v216.316c0 13.255 10.745 24 24 24 12.15 0 22.192-9.029 23.781-20.743l0.219-3.257v-216.316c0-29.382-22.628-53.478-51.407-55.814l-4.593-0.186h-490.667c-29.382 0-53.478 22.628-55.814 51.407l-0.186 4.593v618.667c0 29.382 22.628 53.478 51.407 55.814l4.593 0.186h208.356z"/>
      <glyph unicode="&#xe925;" glyph-name="Clock"
             d="M512 839.111c212.077 0 384-171.923 384-384s-171.923-384-384-384c-212.077 0-384 171.923-384 384s171.923 384 384 384zM512 807.111c-194.404 0-352-157.596-352-352s157.596-352 352-352c194.404 0 352 157.596 352 352s-157.596 352-352 352zM512 705.778c7.855 0 14.387-5.66 15.742-13.124l0.258-2.876v-234.667c0-8.837-7.163-16-16-16-7.855 0-14.387 5.66-15.742 13.124l-0.258 2.876v234.667c0 8.837 7.163 16 16 16zM682.667 471.111c8.837 0 16-7.163 16-16 0-7.855-5.66-14.387-13.124-15.742l-2.876-0.258h-170.667c-8.837 0-16 7.163-16 16 0 7.855 5.66 14.387 13.124 15.742l2.876 0.258h170.667z"/>
      <glyph unicode="&#xe926;" glyph-name="Home-Mobile"
             d="M473.123 807.794l-320-244.706c-15.835-12.109-25.123-30.905-25.123-50.839v-405.582c0-35.346 28.654-64 64-64h640c35.346 0 64 28.654 64 64v405.582c0 19.934-9.288 38.73-25.123 50.839l-320 244.706c-22.948 17.548-54.806 17.548-77.754 0zM524.959 773.901l320-244.706c5.278-4.036 8.374-10.302 8.374-16.946v-405.582c0-11.782-9.551-21.333-21.333-21.333h-640c-11.782 0-21.333 9.551-21.333 21.333v405.582c0 6.645 3.096 12.91 8.374 16.946l320 244.706c7.649 5.849 18.269 5.849 25.918 0zM576 405.334c33.267 0 60.606-25.382 63.707-57.836l0.293-6.164v-277.333h-42.667v277.333c0 10.473-7.547 19.183-17.499 20.99l-3.835 0.344h-128c-10.473 0-19.183-7.547-20.99-17.499l-0.344-3.835v-277.333h-42.667v277.333c0 33.267 25.382 60.606 57.836 63.707l6.164 0.293h128zM597.333 554.667c11.782 0 21.333-9.551 21.333-21.333 0-10.473-7.547-19.183-17.499-20.99l-3.835-0.344h-170.667c-11.782 0-21.333 9.551-21.333 21.333 0 10.473 7.547 19.183 17.499 20.99l3.835 0.344h170.667z"/>
      <glyph unicode="&#xe927;" glyph-name="Home-Mobile-Focused"
             d="M495.211 808.956c20.9 15.499 48.889 16.691 70.879 3.577l5.365-3.577 320-237.303c14.47-10.731 23.662-26.99 25.526-44.704l0.352-6.703v-392.245c0-33.267-25.382-60.606-57.836-63.707l-6.164-0.293h-211.987c-11.782 0-21.333 9.551-21.333 21.333 0 10.473 7.547 19.183 17.499 20.99l3.835 0.344h211.987c10.473 0 19.183 7.547 20.99 17.499l0.344 3.835v392.245c0 5.404-2.048 10.553-5.645 14.457l-2.981 2.679-320 237.303c-6.469 4.797-14.975 5.483-22.027 2.056l-3.388-2.056-320-237.303c-4.341-3.219-7.257-7.931-8.25-13.146l-0.376-3.99v-392.245c0-10.473 7.547-19.183 17.499-20.99l3.835-0.344h213.333c11.782 0 21.333-9.551 21.333-21.333 0-10.473-7.547-19.183-17.499-20.99l-3.835-0.344h-213.333c-33.267 0-60.606 25.382-63.707 57.836l-0.293 6.164v392.245c0 18.015 7.584 35.083 20.703 47.132l5.175 4.275 320 237.303zM618.667 554.667c11.782 0 21.333-9.551 21.333-21.333 0-10.473-7.547-19.183-17.499-20.99l-3.835-0.344h-170.667c-11.782 0-21.333 9.551-21.333 21.333 0 10.473 7.547 19.183 17.499 20.99l3.835 0.344h170.667zM597.333 380.977c-9.36 0-18.607-2.053-27.087-6.015l-128-59.794c-22.521-10.52-36.913-33.129-36.913-57.985v-232.825c0-35.346 28.654-64 64-64 9.36 0 18.607 2.053 27.087 6.015l128 59.794c22.521 10.52 36.913 33.129 36.913 57.985v232.825c0 35.346-28.654 64-64 64zM597.333 338.31c11.782 0 21.333-9.551 21.333-21.333v-232.825c0-8.286-4.797-15.822-12.304-19.328l-128-59.794c-2.827-1.321-5.909-2.005-9.029-2.005-11.782 0-21.333 9.551-21.333 21.333v232.825c0 8.286 4.797 15.822 12.304 19.328l128 59.794c2.827 1.321 5.909 2.005 9.029 2.005z"/>
      <glyph unicode="&#xe928;" glyph-name="Blog-Mobile"
             d="M789.333 832h-554.667c-35.346 0-64-28.654-64-64v-682.667c0-35.346 28.654-64 64-64h554.667c35.346 0 64 28.654 64 64v682.667c0 35.346-28.654 64-64 64zM234.667 789.334h554.667c11.782 0 21.333-9.551 21.333-21.333v-682.667c0-11.782-9.551-21.333-21.333-21.333h-554.667c-11.782 0-21.333 9.551-21.333 21.333v682.667c0 11.782 9.551 21.333 21.333 21.333zM704 746.667h-170.667c-35.346 0-64-28.654-64-64v-170.667c0-35.346 28.654-64 64-64h170.667c35.346 0 64 28.654 64 64v170.667c0 35.346-28.654 64-64 64zM533.333 704h170.667c11.782 0 21.333-9.551 21.333-21.333v-170.667c0-11.782-9.551-21.333-21.333-21.333h-170.667c-11.782 0-21.333 9.551-21.333 21.333v170.667c0 11.782 9.551 21.333 21.333 21.333zM405.333 704c11.782 0 21.333-9.551 21.333-21.333 0-10.473-7.547-19.183-17.499-20.99l-3.835-0.344h-128c-11.782 0-21.333 9.551-21.333 21.333 0 10.473 7.547 19.183 17.499 20.99l3.835 0.344h128zM405.333 533.334c11.782 0 21.333-9.551 21.333-21.333 0-10.473-7.547-19.183-17.499-20.99l-3.835-0.344h-128c-11.782 0-21.333 9.551-21.333 21.333 0 10.473 7.547 19.183 17.499 20.99l3.835 0.344h128zM725.333 362.667c11.782 0 21.333-9.551 21.333-21.333 0-10.473-7.547-19.183-17.499-20.99l-3.835-0.344h-448c-11.782 0-21.333 9.551-21.333 21.333 0 10.473 7.547 19.183 17.499 20.99l3.835 0.344h448zM725.333 192c11.782 0 21.333-9.551 21.333-21.333 0-10.473-7.547-19.183-17.499-20.99l-3.835-0.344h-448c-11.782 0-21.333 9.551-21.333 21.333 0 10.473 7.547 19.183 17.499 20.99l3.835 0.344h448z"/>
      <glyph unicode="&#xe929;" glyph-name="Blog-Moblie-Focused"
             d="M768 832h-256c-47.128 0-85.333-38.205-85.333-85.333v-256c0-47.128 38.205-85.333 85.333-85.333h256c47.128 0 85.333 38.205 85.333 85.333v256c0 47.128-38.205 85.333-85.333 85.333zM512 789.334h256c23.564 0 42.667-19.103 42.667-42.667v-256c0-23.564-19.103-42.667-42.667-42.667h-256c-23.564 0-42.667 19.103-42.667 42.667v256c0 23.564 19.103 42.667 42.667 42.667zM362.667 640c11.782 0 21.333-9.551 21.333-21.333 0-10.473-7.547-19.183-17.499-20.99l-3.835-0.344h-85.333c-11.782 0-21.333 9.551-21.333 21.333 0 10.473 7.547 19.183 17.499 20.99l3.835 0.344h85.333zM362.667 483.556c11.782 0 21.333-9.551 21.333-21.333 0-10.473-7.547-19.183-17.499-20.99l-3.835-0.344h-85.333c-11.782 0-21.333 9.551-21.333 21.333 0 10.473 7.547 19.183 17.499 20.99l3.835 0.344h85.333zM661.333 327.111c11.782 0 21.333-9.551 21.333-21.333 0-10.473-7.547-19.183-17.499-20.99l-3.835-0.344h-384c-11.782 0-21.333 9.551-21.333 21.333 0 10.473 7.547 19.183 17.499 20.99l3.835 0.344h384zM661.333 170.667c11.782 0 21.333-9.551 21.333-21.333 0-10.473-7.547-19.183-17.499-20.99l-3.835-0.344h-384c-11.782 0-21.333 9.551-21.333 21.333 0 10.473 7.547 19.183 17.499 20.99l3.835 0.344h384zM376.889 746.667c11.782 0 21.333-9.551 21.333-21.333 0-10.473-7.547-19.183-17.499-20.99l-3.835-0.344h-142.222c-10.473 0-19.183-7.547-20.99-17.499l-0.344-3.835v-597.333c0-10.473 7.547-19.183 17.499-20.99l3.835-0.344h469.333c10.473 0 19.183 7.547 20.99 17.499l0.344 3.835v264.122c0 11.782 9.551 21.333 21.333 21.333 10.473 0 19.183-7.547 20.99-17.499l0.344-3.835v-264.122c0-33.267-25.382-60.606-57.836-63.707l-6.164-0.293h-469.333c-33.267 0-60.606 25.382-63.707 57.836l-0.293 6.164v597.333c0 33.267 25.382 60.606 57.836 63.707l6.164 0.293h142.222z"/>
      <glyph unicode="&#xe92a;" glyph-name="Report-Mobile"
             d="M789.333 826.667h-554.667c-32.401 0-58.667-26.266-58.667-58.667v-682.667c0-32.401 26.266-58.667 58.667-58.667h554.667c32.401 0 58.667 26.266 58.667 58.667v682.667c0 32.401-26.266 58.667-58.667 58.667zM234.667 794.667h554.667c14.728 0 26.667-11.939 26.667-26.667v-682.667c0-14.728-11.939-26.667-26.667-26.667h-554.667c-14.728 0-26.667 11.939-26.667 26.667v682.667c0 14.728 11.939 26.667 26.667 26.667zM725.333 186.667c8.837 0 16-9.551 16-21.333 0-10.473-5.66-19.183-13.124-20.99l-2.876-0.344h-448c-8.837 0-16 9.551-16 21.333 0 10.473 5.66 19.183 13.124 20.99l2.876 0.344h448zM485.466 723.7v-198.831l-143.259-142.044c-1.883 2.471-3.713 4.985-5.489 7.539-23.989 34.504-38.052 76.429-38.052 121.637 0 108.836 81.5 198.636 186.799 211.699zM453.44 683.691l-6.011-2.167c-68.659-26.135-116.762-92.656-116.762-169.524 0-25.013 5.060-49.231 14.638-71.522l2.983-6.516 105.152 104.256v145.472zM512 725.334c117.821 0 213.333-95.513 213.333-213.333s-95.513-213.333-213.333-213.333c-58.471 0-111.448 23.523-149.983 61.623l149.983 151.711v213.333zM544 690.507v-191.654l-134.72-136.25 2.583-1.817c26.816-17.804 58.102-28.276 91.098-29.898l9.039-0.222c100.148 0 181.333 81.186 181.333 181.333 0 88.503-63.403 162.197-147.265 178.138l-2.068 0.369z"/>
      <glyph unicode="&#xe92b;" glyph-name="Report-Mobile-Focused"
             d="M698.182 240.485c11.782 0 21.333-9.551 21.333-21.333 0-10.473-7.547-19.183-17.499-20.99l-3.835-0.344h-407.273c-11.782 0-21.333 9.551-21.333 21.333 0 10.473 7.547 19.183 17.499 20.99l3.835 0.344h407.273zM590.705 841.676v-238.597l-171.91-170.453-6.587 9.047c-28.787 41.405-45.662 91.714-45.662 145.965 0 130.603 97.8 238.363 224.159 254.039zM548.011 787.615l-7.079-2.781c-77.751-32.184-131.72-108.888-131.72-197.198 0-28.093 5.423-55.328 15.716-80.552l2.507-5.762 120.576 119.552v166.741zM622.545 843.637c141.385 0 256-114.615 256-256s-114.615-256-256-256c-70.165 0-133.737 28.228-179.98 73.947l179.98 182.053v256zM665.173 796.661l0.039-226.554-159.313-161.115 1.142-0.763c30.837-19.905 66.543-31.656 104.164-33.628l11.341-0.297c117.821 0 213.333 95.513 213.333 213.333 0 102.318-72.031 187.812-168.151 208.539l-2.555 0.485zM366.545 768c11.782 0 21.333-9.551 21.333-21.333 0-10.473-7.547-19.183-17.499-20.99l-3.835-0.344h-110.545c-10.473 0-19.183-7.547-20.99-17.499l-0.344-3.835v-597.333c0-10.473 7.547-19.183 17.499-20.99l3.835-0.344h469.333c10.473 0 19.183 7.547 20.99 17.499l0.344 3.835v205.649c0 11.782 9.551 21.333 21.333 21.333 10.473 0 19.183-7.547 20.99-17.499l0.344-3.835v-205.649c0-33.267-25.382-60.606-57.836-63.707l-6.164-0.293h-469.333c-33.267 0-60.606 25.382-63.707 57.836l-0.293 6.164v597.333c0 33.267 25.382 60.606 57.836 63.707l6.164 0.293h110.545z"/>
      <glyph unicode="&#xe92c;" glyph-name="Participants-Mobile"
             d="M789.333 826.667h-554.667c-32.401 0-58.667-26.266-58.667-58.667v-682.667c0-32.401 26.266-58.667 58.667-58.667h554.667c32.401 0 58.667 26.266 58.667 58.667v682.667c0 32.401-26.266 58.667-58.667 58.667zM234.667 794.667h554.667c14.728 0 26.667-11.939 26.667-26.667v-682.667c0-14.728-11.939-26.667-26.667-26.667h-554.667c-14.728 0-26.667 11.939-26.667 26.667v682.667c0 14.728 11.939 26.667 26.667 26.667zM704 186.667c8.837 0 16-9.551 16-21.333 0-10.473-5.66-19.183-13.124-20.99l-2.876-0.344h-384c-8.837 0-16 9.551-16 21.333 0 10.473 5.66 19.183 13.124 20.99l2.876 0.344h384zM512 725.334c58.91 0 106.667-47.756 106.667-106.667s-47.756-106.667-106.667-106.667c-58.91 0-106.667 47.756-106.667 106.667s47.756 106.667 106.667 106.667zM512 693.334c-41.237 0-74.667-33.429-74.667-74.667s33.429-74.667 74.667-74.667c41.237 0 74.667 33.429 74.667 74.667s-33.429 74.667-74.667 74.667zM617.026 485.334h-210.051c-46.142 0-81.641-46.149-81.641-101.333v-57.837c0-23.242 15.58-43.496 37.151-43.496h299.031c21.571 0 37.151 20.255 37.151 43.496v57.837c0 55.184-35.499 101.333-81.641 101.333zM406.974 453.334h210.051c26.363 0 49.641-30.261 49.641-69.333v-57.837c0-7.13-3.359-11.496-5.151-11.496h-299.031c-1.792 0-5.151 4.366-5.151 11.496v57.837c0 39.072 23.278 69.333 49.641 69.333z"/>
      <glyph unicode="&#xe92d;" glyph-name="Trash"
             d="M746.667 727.111c8.837 0 16-7.163 16-16 0-7.855-5.66-14.387-13.124-15.742l-2.876-0.258h-469.333c-8.837 0-16 7.163-16 16 0 7.855 5.66 14.387 13.124 15.742l2.876 0.258h469.333zM597.333 791.111c8.837 0 16-7.163 16-16 0-7.855-5.66-14.387-13.124-15.742l-2.876-0.258h-170.667c-8.837 0-16 7.163-16 16 0 7.855 5.66 14.387 13.124 15.742l2.876 0.258h170.667zM704 663.111h-384c-32.401 0-58.667-26.266-58.667-58.667v-469.333c0-32.401 26.266-58.667 58.667-58.667h384c32.401 0 58.667 26.266 58.667 58.667v469.333c0 32.401-26.266 58.667-58.667 58.667zM320 631.111h384c14.728 0 26.667-11.939 26.667-26.667v-469.333c0-14.728-11.939-26.667-26.667-26.667h-384c-14.728 0-26.667 11.939-26.667 26.667v469.333c0 14.728 11.939 26.667 26.667 26.667zM597.333 492.444c7.855 0 14.387-5.66 15.742-13.124l0.258-2.876v-213.333c0-8.837-7.163-16-16-16-7.855 0-14.387 5.66-15.742 13.124l-0.258 2.876v213.333c0 8.837 7.163 16 16 16zM426.667 492.444c7.855 0 14.387-5.66 15.742-13.124l0.258-2.876v-213.333c0-8.837-7.163-16-16-16-7.855 0-14.387 5.66-15.742 13.124l-0.258 2.876v213.333c0 8.837 7.163 16 16 16z"/>
      <glyph unicode="&#xe92e;" glyph-name="Add"
             d="M733.246 471.111c8.837 0 16-7.163 16-16 0-7.855-5.66-14.387-13.124-15.742l-2.876-0.258h-442.492c-8.837 0-16 7.163-16 16 0 7.855 5.66 14.387 13.124 15.742l2.876 0.258h442.492zM528 676.357c0 8.837-7.163 16-16 16-7.855 0-14.387-5.66-15.742-13.124l-0.258-2.876v-442.492c0-8.837 7.163-16 16-16 7.855 0 14.387 5.66 15.742 13.124l0.258 2.876v442.492z"/>
      <glyph unicode="&#xe92f;" glyph-name="Participants-Mobile-Focused"
             d="M661.333 234.667c11.782 0 21.333-9.551 21.333-21.333 0-10.473-7.547-19.183-17.499-20.99l-3.835-0.344h-384c-11.782 0-21.333 9.551-21.333 21.333 0 10.473 7.547 19.183 17.499 20.99l3.835 0.344h384zM618.667 853.334c70.692 0 128-57.308 128-128s-57.308-128-128-128c-70.692 0-128 57.308-128 128s57.308 128 128 128zM618.667 810.667c-47.128 0-85.333-38.205-85.333-85.333s38.205-85.333 85.333-85.333c47.128 0 85.333 38.205 85.333 85.333s-38.205 85.333-85.333 85.333zM749.949 576h-262.564c-57.289 0-103.385-47.939-103.385-106.667v-57.837c0-26.785 21.197-48.83 47.772-48.83h373.789c26.575 0 47.772 22.045 47.772 48.83v57.837c0 58.727-46.096 106.667-103.385 106.667zM487.385 533.334h262.564c33.342 0 60.718-28.471 60.718-64v-57.837c0-3.587-2.477-6.163-5.105-6.163h-373.789c-2.628 0-5.105 2.576-5.105 6.163v57.837c0 35.529 27.376 64 60.718 64zM432.356 746.667c11.782 0 21.333-9.551 21.333-21.333 0-10.473-7.547-19.183-17.499-20.99l-3.835-0.344h-197.689c-10.473 0-19.183-7.547-20.99-17.499l-0.344-3.835v-597.333c0-10.473 7.547-19.183 17.499-20.99l3.835-0.344h469.333c10.473 0 19.183 7.547 20.99 17.499l0.344 3.835v205.649c0 11.782 9.551 21.333 21.333 21.333 10.473 0 19.183-7.547 20.99-17.499l0.344-3.835v-205.649c0-33.267-25.382-60.606-57.836-63.707l-6.164-0.293h-469.333c-33.267 0-60.606 25.382-63.707 57.836l-0.293 6.164v597.333c0 33.267 25.382 60.606 57.836 63.707l6.164 0.293h197.689z"/>
      <glyph unicode="&#xe930;" glyph-name="Suggestion-Mobile"
             d="M810.667 832h-554.667c-35.612 0-64-29.965-64-66.37v-720.593c0-36.405 28.388-66.37 64-66.37h554.667c35.612 0 64 29.965 64 66.37v720.593c0 36.405-28.388 66.37-64 66.37zM256 789.334h554.667c11.516 0 21.333-10.362 21.333-23.704v-720.593c0-13.341-9.817-23.704-21.333-23.704h-554.667c-11.516 0-21.333 10.362-21.333 23.704v720.593c0 13.341 9.817 23.704 21.333 23.704zM746.667 156.445c11.782 0 21.333-9.551 21.333-21.333 0-10.473-7.547-19.183-17.499-20.99l-3.835-0.344h-448c-11.782 0-21.333 9.551-21.333 21.333 0 10.473 7.547 19.183 17.499 20.99l3.835 0.344h448zM514.086 714.825c6.211 10.11 19.862 13.517 30.491 7.609 2.207-1.227 4.167-2.8 5.801-4.646l2.198-2.963 67.384-109.689 130.493-27.064c12.028-2.495 19.653-13.792 17.030-25.233-0.544-2.375-1.512-4.635-2.852-6.684l-2.284-2.904-88.848-94.855 13.265-126.415c1.223-11.652-7.716-22.041-19.966-23.204-2.543-0.241-5.101-0.064-7.564 0.515l-3.609 1.168-122.295 51.065-122.295-51.065c-11.272-4.707-24.422 0.17-29.37 10.892-1.027 2.226-1.641 4.595-1.823 7.002l0.053 3.626 13.265 126.415-88.848 94.855c-8.189 8.743-7.377 22.146 1.815 29.936 1.908 1.617 4.087 2.904 6.438 3.813l3.642 1.073 130.493 27.064 67.384 109.689zM593.252 567.101l-59.961 97.561-59.88-97.561-111.341-23.058 75.561-80.709-11.604-110.352 107.304 44.781 107.266-44.781-11.566 110.352 75.523 80.709-111.303 23.058z"/>
      <glyph unicode="&#xe931;" glyph-name="Suggestion-Mobile-Focused"
             d="M661.333 234.667c11.782 0 21.333-9.551 21.333-21.333 0-10.473-7.547-19.183-17.499-20.99l-3.835-0.344h-384c-11.782 0-21.333 9.551-21.333 21.333 0 10.473 7.547 19.183 17.499 20.99l3.835 0.344h384zM579.892 849.802c6.499 11.121 20.783 14.869 31.904 8.37 2.309-1.349 4.36-3.080 6.070-5.11l2.3-3.26 70.506-120.658 136.54-29.77c12.585-2.744 20.563-15.171 17.819-27.756-0.57-2.613-1.582-5.098-2.985-7.352l-2.389-3.195-92.965-104.341 13.88-139.056c1.279-12.817-8.074-24.245-20.891-25.524-2.661-0.266-5.338-0.071-7.915 0.567l-3.777 1.285-127.961 56.172-127.961-56.172c-11.795-5.178-25.553 0.187-30.731 11.981-1.075 2.449-1.717 5.055-1.907 7.702l0.055 3.989 13.88 139.056-92.965 104.341c-8.569 9.617-7.719 24.36 1.899 32.929 1.997 1.779 4.277 3.195 6.736 4.194l3.811 1.18 136.54 29.77 70.506 120.658zM663.284 691.447l-63.262 108.254-63.247-108.254-122.524-26.7 83.43-93.617-12.476-124.708 114.824 50.348 114.766-50.348-12.417 124.708 83.372 93.617-122.466 26.7zM396.245 768c11.782 0 21.333-9.551 21.333-21.333 0-10.473-7.547-19.183-17.499-20.99l-3.835-0.344h-161.578c-10.473 0-19.183-7.547-20.99-17.499l-0.344-3.835v-597.333c0-10.473 7.547-19.183 17.499-20.99l3.835-0.344h469.333c10.473 0 19.183 7.547 20.99 17.499l0.344 3.835v224.97c0 11.782 9.551 21.333 21.333 21.333 10.473 0 19.183-7.547 20.99-17.499l0.344-3.835v-224.97c0-33.267-25.382-60.606-57.836-63.707l-6.164-0.293h-469.333c-33.267 0-60.606 25.382-63.707 57.836l-0.293 6.164v597.333c0 33.267 25.382 60.606 57.836 63.707l6.164 0.293h161.578z"/>
      <glyph unicode="&#xe932;" glyph-name="Test-Mobile"
             d="M789.333 832h-554.667c-35.346 0-64-28.654-64-64v-682.667c0-35.346 28.654-64 64-64h554.667c35.346 0 64 28.654 64 64v682.667c0 35.346-28.654 64-64 64zM234.667 789.334h554.667c11.782 0 21.333-9.551 21.333-21.333v-682.667c0-11.782-9.551-21.333-21.333-21.333h-554.667c-11.782 0-21.333 9.551-21.333 21.333v682.667c0 11.782 9.551 21.333 21.333 21.333zM725.333 746.667h-85.333c-23.564 0-42.667-19.103-42.667-42.667v-85.333c0-23.564 19.103-42.667 42.667-42.667h85.333c23.564 0 42.667 19.103 42.667 42.667v85.333c0 23.564-19.103 42.667-42.667 42.667zM640 704h85.333v-85.333h-85.333v85.333zM725.333 512h-85.333c-23.564 0-42.667-19.103-42.667-42.667v-85.333c0-23.564 19.103-42.667 42.667-42.667h85.333c23.564 0 42.667 19.103 42.667 42.667v85.333c0 23.564-19.103 42.667-42.667 42.667zM640 469.334h85.333v-85.333h-85.333v85.333zM725.333 277.334h-85.333c-23.564 0-42.667-19.103-42.667-42.667v-85.333c0-23.564 19.103-42.667 42.667-42.667h85.333c23.564 0 42.667 19.103 42.667 42.667v85.333c0 23.564-19.103 42.667-42.667 42.667zM640 234.667h85.333v-85.333h-85.333v85.333zM533.333 448c11.782 0 21.333-9.551 21.333-21.333 0-10.473-7.547-19.183-17.499-20.99l-3.835-0.344h-256c-11.782 0-21.333 9.551-21.333 21.333 0 10.473 7.547 19.183 17.499 20.99l3.835 0.344h256zM533.333 682.667c11.782 0 21.333-9.551 21.333-21.333 0-10.473-7.547-19.183-17.499-20.99l-3.835-0.344h-256c-11.782 0-21.333 9.551-21.333 21.333 0 10.473 7.547 19.183 17.499 20.99l3.835 0.344h256zM533.333 213.334c11.782 0 21.333-9.551 21.333-21.333 0-10.473-7.547-19.183-17.499-20.99l-3.835-0.344h-256c-11.782 0-21.333 9.551-21.333 21.333 0 10.473 7.547 19.183 17.499 20.99l3.835 0.344h256z"/>
      <glyph unicode="&#xe933;" glyph-name="Test-Mobile-Focused"
             d="M789.333 832h-554.667c-35.346 0-64-28.654-64-64v-682.667c0-35.346 28.654-64 64-64h554.667c35.346 0 64 28.654 64 64v682.667c0 35.346-28.654 64-64 64zM234.667 789.334h554.667c11.782 0 21.333-9.551 21.333-21.333v-682.667c0-11.782-9.551-21.333-21.333-21.333h-554.667c-11.782 0-21.333 9.551-21.333 21.333v682.667c0 11.782 9.551 21.333 21.333 21.333zM732.444 746.667h-56.889c-19.637 0-35.556-15.919-35.556-35.556v-56.889c0-19.637 15.919-35.556 35.556-35.556h56.889c19.637 0 35.556 15.919 35.556 35.556v56.889c0 19.637-15.919 35.556-35.556 35.556zM725.333 704v-42.667h-42.667v42.667h42.667zM711.111 554.667h-142.222c-31.419 0-56.889-25.47-56.889-56.889v-142.222c0-31.419 25.47-56.889 56.889-56.889h142.222c31.419 0 56.889 25.47 56.889 56.889v142.222c0 31.419-25.47 56.889-56.889 56.889zM568.889 512h142.222c7.855 0 14.222-6.368 14.222-14.222v-142.222c0-7.855-6.368-14.222-14.222-14.222h-142.222c-7.855 0-14.222 6.368-14.222 14.222v142.222c0 7.855 6.368 14.222 14.222 14.222zM732.444 234.667h-56.889c-19.637 0-35.556-15.919-35.556-35.556v-56.889c0-19.637 15.919-35.556 35.556-35.556h56.889c19.637 0 35.556 15.919 35.556 35.556v56.889c0 19.637-15.919 35.556-35.556 35.556zM725.333 192v-42.667h-42.667v42.667h42.667zM448 448c11.782 0 21.333-9.551 21.333-21.333 0-10.473-7.547-19.183-17.499-20.99l-3.835-0.344h-170.667c-11.782 0-21.333 9.551-21.333 21.333 0 10.473 7.547 19.183 17.499 20.99l3.835 0.344h170.667zM554.667 704c11.782 0 21.333-9.551 21.333-21.333 0-10.473-7.547-19.183-17.499-20.99l-3.835-0.344h-277.333c-11.782 0-21.333 9.551-21.333 21.333 0 10.473 7.547 19.183 17.499 20.99l3.835 0.344h277.333zM576 192c11.782 0 21.333-9.551 21.333-21.333 0-10.473-7.547-19.183-17.499-20.99l-3.835-0.344h-298.667c-11.782 0-21.333 9.551-21.333 21.333 0 10.473 7.547 19.183 17.499 20.99l3.835 0.344h298.667z"/>
      <glyph unicode="&#xe934;" glyph-name="Basket-Mobile"
             d="M386.252 734.874c5.269 10.538 18.083 14.81 28.622 9.541 9.367-4.684 13.783-15.329 10.948-25.038l-1.408-3.584-85.333-170.667c-5.269-10.538-18.083-14.81-28.622-9.541-9.367 4.684-13.783 15.329-10.948 25.038l1.408 3.584 85.333 170.667zM637.748 734.874c-5.269 10.538-18.083 14.81-28.622 9.541-9.367-4.684-13.783-15.329-10.948-25.038l1.408-3.584 85.333-170.667c5.269-10.538 18.083-14.81 28.622-9.541 9.367 4.684 13.783 15.329 10.948 25.038l-1.408 3.584-85.333 170.667zM405.333 469.334c10.473 0 19.183-7.547 20.99-17.499l0.344-3.835v-213.333c0-11.782-9.551-21.333-21.333-21.333-10.473 0-19.183 7.547-20.99 17.499l-0.344 3.835v213.333c0 11.782 9.551 21.333 21.333 21.333zM618.667 469.334c10.473 0 19.183-7.547 20.99-17.499l0.344-3.835v-213.333c0-11.782-9.551-21.333-21.333-21.333-10.473 0-19.183 7.547-20.99 17.499l-0.344 3.835v213.333c0 11.782 9.551 21.333 21.333 21.333zM838.774 576h-653.14c-35.346 0-64-28.654-64-64 0-6.332 0.94-12.629 2.788-18.684l104.189-341.333c8.218-26.923 33.063-45.316 61.212-45.316h447.29c28.31 0 53.256 18.599 61.337 45.732l101.66 341.333c10.089 33.876-9.193 69.516-43.069 79.606-5.929 1.766-12.082 2.663-18.268 2.663zM185.634 533.334h653.14c2.062 0 4.113-0.299 6.089-0.888 11.292-3.363 17.719-15.243 14.356-26.535l-101.66-341.333c-2.694-9.044-11.009-15.244-20.446-15.244h-447.29c-9.383 0-17.665 6.131-20.404 15.105l-104.189 341.333c-0.616 2.019-0.929 4.118-0.929 6.228 0 11.782 9.551 21.333 21.333 21.333z"/>
      <glyph unicode="&#xe935;" glyph-name="Basket-Mobile-Focused"
             d="M770.252 734.874c5.269 10.538 18.083 14.81 28.622 9.541 9.367-4.684 13.783-15.329 10.948-25.038l-1.408-3.584-85.333-170.667c-5.269-10.538-18.083-14.81-28.622-9.541-9.367 4.684-13.783 15.329-10.948 25.038l1.408 3.584 85.333 170.667zM253.748 734.874c-5.269 10.538-18.083 14.81-28.622 9.541-9.367-4.684-13.783-15.329-10.948-25.038l1.408-3.584 85.333-170.667c5.269-10.538 18.083-14.81 28.622-9.541 9.367 4.684 13.783 15.329 10.948 25.038l-1.408 3.584-85.333 170.667zM405.333 469.334c10.473 0 19.183-7.547 20.99-17.499l0.344-3.835v-213.333c0-11.782-9.551-21.333-21.333-21.333-10.473 0-19.183 7.547-20.99 17.499l-0.344 3.835v213.333c0 11.782 9.551 21.333 21.333 21.333zM618.667 469.334c10.473 0 19.183-7.547 20.99-17.499l0.344-3.835v-213.333c0-11.782-9.551-21.333-21.333-21.333-10.473 0-19.183 7.547-20.99 17.499l-0.344 3.835v213.333c0 11.782 9.551 21.333 21.333 21.333zM838.774 576h-653.14c-35.346 0-64-28.654-64-64 0-6.332 0.94-12.629 2.788-18.684l104.189-341.333c8.218-26.923 33.063-45.316 61.212-45.316h447.29c28.31 0 53.256 18.599 61.337 45.732l101.66 341.333c10.089 33.876-9.193 69.516-43.069 79.606-5.929 1.766-12.082 2.663-18.268 2.663zM185.634 533.334h653.14c2.062 0 4.113-0.299 6.089-0.888 11.292-3.363 17.719-15.243 14.356-26.535l-101.66-341.333c-2.694-9.044-11.009-15.244-20.446-15.244h-447.29c-9.383 0-17.665 6.131-20.404 15.105l-104.189 341.333c-0.616 2.019-0.929 4.118-0.929 6.228 0 11.782 9.551 21.333 21.333 21.333z"/>
      <glyph unicode="&#xe936;" glyph-name="User-Mobile"
             d="M512 789.334c106.039 0 192-85.961 192-192s-85.961-192-192-192c-106.039 0-192 85.961-192 192s85.961 192 192 192zM512 746.667c-82.475 0-149.333-66.859-149.333-149.333s66.859-149.333 149.333-149.333c82.475 0 149.333 66.859 149.333 149.333s-66.859 149.333-149.333 149.333zM708.923 362.667h-393.846c-79.947 0-144.41-67.042-144.41-149.333v-86.756c0-34.378 27.116-62.578 60.991-62.578h560.684c33.876 0 60.991 28.2 60.991 62.578v86.756c0 82.291-64.463 149.333-144.41 149.333zM315.077 320h393.846c56 0 101.744-47.573 101.744-106.667v-86.756c0-11.18-8.396-19.911-18.325-19.911h-560.684c-9.929 0-18.325 8.731-18.325 19.911v86.756c0 59.094 45.743 106.667 101.744 106.667z"/>
      <glyph unicode="&#xe937;" glyph-name="User-Mobile-Focused"
             d="M512 789.334c106.039 0 192-85.961 192-192s-85.961-192-192-192c-106.039 0-192 85.961-192 192s85.961 192 192 192zM512 746.667c-82.475 0-149.333-66.859-149.333-149.333s66.859-149.333 149.333-149.333c82.475 0 149.333 66.859 149.333 149.333s-66.859 149.333-149.333 149.333zM405.333 583.111c0 11.782 9.551 21.333 21.333 21.333s21.333-9.551 21.333-21.333c0-35.346 28.654-64 64-64s64 28.654 64 64c0 11.782 9.551 21.333 21.333 21.333s21.333-9.551 21.333-21.333c0-58.91-47.756-106.667-106.667-106.667s-106.667 47.756-106.667 106.667zM708.923 362.667h-393.846c-79.947 0-144.41-67.042-144.41-149.333v-86.756c0-34.378 27.116-62.578 60.991-62.578h560.684c33.876 0 60.991 28.2 60.991 62.578v86.756c0 82.291-64.463 149.333-144.41 149.333zM315.077 320h393.846c56 0 101.744-47.573 101.744-106.667v-86.756c0-11.18-8.396-19.911-18.325-19.911h-560.684c-9.929 0-18.325 8.731-18.325 19.911v86.756c0 59.094 45.743 106.667 101.744 106.667z"/>
      <glyph unicode="&#xe938;" glyph-name="Group-Mobile"
             d="M825.655 447.8c-46.632-37.762-112.728-38.338-159.842-2.476-9.375 7.136-11.19 20.521-4.054 29.896s20.521 11.19 29.896 4.054c31.554-24.018 75.887-23.632 107.149 1.684 10.702 8.666 19.003 19.498 24.517 31.749 13.358 29.683 9.163 64.594-11.685 90.338-16.978 20.966-42.252 32.537-68.729 32.172-12.514-0.173-24.843-3.031-36.163-8.454-10.626-5.090-23.366-0.603-28.457 10.022s-0.603 23.366 10.022 28.457c16.929 8.11 35.349 12.38 54.009 12.638 39.419 0.544 77.178-16.743 102.476-47.983 31.081-38.382 37.34-90.467 17.435-134.699-8.237-18.304-20.654-34.506-36.574-47.398zM197.6 447.8c46.632-37.762 112.728-38.338 159.842-2.476 9.375 7.136 11.19 20.521 4.054 29.896s-20.521 11.19-29.896 4.054c-31.554-24.018-75.887-23.632-107.149 1.684-10.702 8.666-19.003 19.498-24.517 31.749-13.358 29.683-9.163 64.594 11.685 90.338 16.978 20.966 42.252 32.537 68.729 32.172 12.514-0.173 24.843-3.031 36.163-8.454 10.626-5.090 23.366-0.603 28.457 10.022s0.603 23.366-10.022 28.457c-16.929 8.11-35.349 12.38-54.009 12.638-39.419 0.544-77.178-16.743-102.476-47.983-31.081-38.382-37.34-90.467-17.435-134.699 8.237-18.304 20.654-34.506 36.574-47.398zM512 725.334c82.475 0 149.333-66.859 149.333-149.333s-66.859-149.333-149.333-149.333c-82.475 0-149.333 66.859-149.333 149.333s66.859 149.333 149.333 149.333zM512 682.667c-58.91 0-106.667-47.756-106.667-106.667s47.756-106.667 106.667-106.667c58.91 0 106.667 47.756 106.667 106.667s-47.756 106.667-106.667 106.667zM656.41 405.334h-288.821c-61.37 0-111.59-47.48-111.59-106.667v-57.837c0-27.244 22.831-48.83 50.416-48.83h411.168c27.585 0 50.416 21.586 50.416 48.83v57.837c0 59.186-50.22 106.667-111.59 106.667zM367.59 362.667h288.821c38.324 0 68.923-28.93 68.923-64v-57.837c0-3.128-3.21-6.163-7.749-6.163h-411.168c-4.539 0-7.749 3.035-7.749 6.163v57.837c0 35.070 30.599 64 68.923 64zM832 405.334c56.554 0 102.828-44.012 106.44-99.653l0.227-7.013v-42.667c0-33.267-25.382-60.606-57.836-63.707l-6.164-0.293h-65.020c-11.782 0-21.333 9.551-21.333 21.333 0 10.473 7.547 19.183 17.499 20.99l3.835 0.344h65.020c10.473 0 19.183 7.547 20.99 17.499l0.344 3.835v42.667c0 33.267-25.382 60.606-57.836 63.707l-6.164 0.293h-42.316c-11.782 0-21.333 9.551-21.333 21.333 0 10.473 7.547 19.183 17.499 20.99l3.835 0.344h42.316zM192.351 405.334c-56.554 0-102.828-44.012-106.44-99.653l-0.227-7.013v-42.667c0-33.267 25.382-60.606 57.836-63.707l6.164-0.293h65.020c11.782 0 21.333 9.551 21.333 21.333 0 10.473-7.547 19.183-17.499 20.99l-3.835 0.344h-65.020c-10.473 0-19.183 7.547-20.99 17.499l-0.344 3.835v42.667c0 33.267 25.382 60.606 57.836 63.707l6.164 0.293h42.316c11.782 0 21.333 9.551 21.333 21.333 0 10.473-7.547 19.183-17.499 20.99l-3.835 0.344h-42.316z"/>
      <glyph unicode="&#xe939;" glyph-name="Group-Mobile-Focused"
             d="M825.655 447.804c-43.096-34.898-103.124-38.236-149.549-9.549-10.023 6.193-13.128 19.339-6.934 29.362s19.339 13.128 29.362 6.934c31.117-19.227 71.374-16.989 100.27 6.411 10.702 8.666 19.003 19.498 24.517 31.749 13.358 29.683 9.163 64.594-11.685 90.338-16.978 20.966-42.252 32.537-68.729 32.172-11.781-0.162-21.463 9.256-21.625 21.037s9.256 21.463 21.037 21.625c39.419 0.544 77.178-16.743 102.476-47.983 31.081-38.382 37.34-90.467 17.435-134.699-8.237-18.304-20.654-34.506-36.574-47.398zM191.271 447.804c43.096-34.898 103.124-38.236 149.549-9.549 10.023 6.193 13.128 19.339 6.934 29.362s-19.339 13.128-29.362 6.934c-31.117-19.227-71.374-16.989-100.27 6.411-10.702 8.666-19.003 19.498-24.517 31.749-13.358 29.683-9.163 64.594 11.685 90.338 16.978 20.966 42.252 32.537 68.729 32.172 11.781-0.162 21.463 9.256 21.625 21.037s-9.256 21.463-21.037 21.625c-39.419 0.544-77.178-16.743-102.476-47.983-31.081-38.382-37.34-90.467-17.435-134.699 8.237-18.304 20.654-34.506 36.574-47.398zM512 810.667c109.966 0 199.111-89.145 199.111-199.111s-89.145-199.111-199.111-199.111c-109.966 0-199.111 89.145-199.111 199.111s89.145 199.111 199.111 199.111zM512 768c-86.402 0-156.444-70.043-156.444-156.444s70.043-156.444 156.444-156.444c86.402 0 156.444 70.043 156.444 156.444s-70.043 156.444-156.444 156.444zM704.547 376.889h-385.094c-77.986 0-141.675-60.215-141.675-135.111v-77.116c0-32.306 27.171-57.995 60.11-57.995h548.224c32.939 0 60.11 25.689 60.11 57.995v77.116c0 74.896-63.689 135.111-141.675 135.111zM319.453 334.223h385.094c54.94 0 99.009-41.665 99.009-92.444v-77.116c0-8.19-7.55-15.328-17.443-15.328h-548.224c-9.893 0-17.443 7.139-17.443 15.328v77.116c0 50.78 44.068 92.444 99.009 92.444zM832 405.334c56.554 0 102.828-44.012 106.44-99.653l0.227-7.013v-42.667c0-35.346-28.654-64-64-64-11.782 0-21.333 9.551-21.333 21.333 0 10.473 7.547 19.183 17.499 20.99l3.835 0.344c10.473 0 19.183 7.547 20.99 17.499l0.344 3.835v42.667c0 33.267-25.382 60.606-57.836 63.707l-6.164 0.293h-42.316c-11.782 0-21.333 9.551-21.333 21.333 0 10.473 7.547 19.183 17.499 20.99l3.835 0.344h42.316zM192.351 405.334c-56.554 0-102.828-44.012-106.44-99.653l-0.227-7.013v-42.667c0-35.346 28.654-64 64-64 11.782 0 21.333 9.551 21.333 21.333 0 10.473-7.547 19.183-17.499 20.99l-3.835 0.344c-10.473 0-19.183 7.547-20.99 17.499l-0.344 3.835v42.667c0 33.267 25.382 60.606 57.836 63.707l6.164 0.293h42.316c11.782 0 21.333 9.551 21.333 21.333 0 10.473-7.547 19.183-17.499 20.99l-3.835 0.344h-42.316z"/>
      <glyph unicode="&#xe93a;" glyph-name="Exit-Mobile"
             d="M535.469 789.334c11.782 0 21.333-9.551 21.333-21.333 0-10.473-7.547-19.183-17.499-20.99l-3.835-0.344h-215.469c-10.473 0-19.183-7.547-20.99-17.499l-0.344-3.835v-597.333c0-10.473 7.547-19.183 17.499-20.99l3.835-0.344h215.469c11.782 0 21.333-9.551 21.333-21.333 0-10.473-7.547-19.183-17.499-20.99l-3.835-0.344h-215.469c-33.267 0-60.606 25.382-63.707 57.836l-0.293 6.164v597.333c0 33.267 25.382 60.606 57.836 63.707l6.164 0.293h215.469zM623.341 226.66c-7.36-9.2-5.869-22.625 3.332-29.985 8.178-6.542 19.694-6.091 27.321 0.552l2.664 2.78 149.344 186.68c17.364 21.704 18.604 51.892 3.721 74.809l-3.721 5.152-149.344 186.68c-7.36 9.2-20.785 10.692-29.985 3.332-8.178-6.542-10.265-17.877-5.459-26.776l2.127-3.209 149.344-186.68c5.343-6.678 6.106-15.766 2.29-23.133l-2.29-3.521-149.344-186.68zM789.333 448c11.782 0 21.333-9.551 21.333-21.333 0-10.473-7.547-19.183-17.499-20.99l-3.835-0.344h-384c-11.782 0-21.333 9.551-21.333 21.333 0 10.473 7.547 19.183 17.499 20.99l3.835 0.344h384z"/>
      <glyph unicode="&#xe93b;" glyph-name="Exit-Mobile-Focused"
             d="M471.469 789.334c11.782 0 21.333-9.551 21.333-21.333 0-10.473-7.547-19.183-17.499-20.99l-3.835-0.344h-215.469c-10.473 0-19.183-7.547-20.99-17.499l-0.344-3.835v-597.333c0-10.473 7.547-19.183 17.499-20.99l3.835-0.344h215.469c11.782 0 21.333-9.551 21.333-21.333 0-10.473-7.547-19.183-17.499-20.99l-3.835-0.344h-215.469c-33.267 0-60.606 25.382-63.707 57.836l-0.293 6.164v597.333c0 33.267 25.382 60.606 57.836 63.707l6.164 0.293h215.469zM644.675 226.66c-7.36-9.2-5.869-22.625 3.332-29.985 8.178-6.542 19.694-6.091 27.321 0.552l2.664 2.78 149.344 186.68c17.364 21.704 18.604 51.892 3.721 74.809l-3.721 5.152-149.344 186.68c-7.36 9.2-20.785 10.692-29.985 3.332-8.178-6.542-10.265-17.877-5.459-26.776l2.127-3.209 149.344-186.68c5.343-6.678 6.106-15.766 2.29-23.133l-2.29-3.521-149.344-186.68zM810.667 448c11.782 0 21.333-9.551 21.333-21.333 0-10.473-7.547-19.183-17.499-20.99l-3.835-0.344h-384c-11.782 0-21.333 9.551-21.333 21.333 0 10.473 7.547 19.183 17.499 20.99l3.835 0.344h384z"/>
      <glyph unicode="&#xe93c;" glyph-name="Burger-Menu-Mobile"
             d="M789.333 661.334c11.782 0 21.333-9.551 21.333-21.333 0-10.473-7.547-19.183-17.499-20.99l-3.835-0.344h-554.667c-11.782 0-21.333 9.551-21.333 21.333 0 10.473 7.547 19.183 17.499 20.99l3.835 0.344h554.667zM618.667 448c11.782 0 21.333-9.551 21.333-21.333 0-10.473-7.547-19.183-17.499-20.99l-3.835-0.344h-384c-11.782 0-21.333 9.551-21.333 21.333 0 10.473 7.547 19.183 17.499 20.99l3.835 0.344h384zM789.333 234.667c11.782 0 21.333-9.551 21.333-21.333 0-10.473-7.547-19.183-17.499-20.99l-3.835-0.344h-554.667c-11.782 0-21.333 9.551-21.333 21.333 0 10.473 7.547 19.183 17.499 20.99l3.835 0.344h554.667z"/>
      <glyph unicode="&#xe93d;" glyph-name="More-Mobile"
             d="M512 640c23.564 0 42.667-19.103 42.667-42.667s-19.103-42.667-42.667-42.667c-23.564 0-42.667 19.103-42.667 42.667s19.103 42.667 42.667 42.667zM512 469.334c23.564 0 42.667-19.103 42.667-42.667s-19.103-42.667-42.667-42.667c-23.564 0-42.667 19.103-42.667 42.667s19.103 42.667 42.667 42.667zM512 298.667c23.564 0 42.667-19.103 42.667-42.667s-19.103-42.667-42.667-42.667c-23.564 0-42.667 19.103-42.667 42.667s19.103 42.667 42.667 42.667z"/>
      <glyph unicode="&#xe93e;" glyph-name="Search-Mobile"
             d="M426.667 810.667c164.949 0 298.667-133.718 298.667-298.667s-133.718-298.667-298.667-298.667c-164.949 0-298.667 133.718-298.667 298.667s133.718 298.667 298.667 298.667zM426.667 768c-141.385 0-256-114.615-256-256s114.615-256 256-256c141.385 0 256 114.615 256 256s-114.615 256-256 256zM624.915 313.752c7.405 7.405 18.901 8.228 27.215 2.468l2.955-2.468 234.667-234.667c8.331-8.331 8.331-21.839 0-30.17-7.405-7.405-18.901-8.228-27.215-2.468l-2.955 2.468-234.667 234.667c-8.331 8.331-8.331 21.839 0 30.17z"/>
      <glyph unicode="&#xe93f;" glyph-name="Trash-Mobile"
             d="M746.667 704c11.782 0 21.333-9.551 21.333-21.333 0-10.473-7.547-19.183-17.499-20.99l-3.835-0.344h-469.333c-11.782 0-21.333 9.551-21.333 21.333 0 10.473 7.547 19.183 17.499 20.99l3.835 0.344h469.333zM597.333 768c11.782 0 21.333-9.551 21.333-21.333 0-10.473-7.547-19.183-17.499-20.99l-3.835-0.344h-170.667c-11.782 0-21.333 9.551-21.333 21.333 0 10.473 7.547 19.183 17.499 20.99l3.835 0.344h170.667zM704 640h-384c-35.346 0-64-28.654-64-64v-469.333c0-35.346 28.654-64 64-64h384c35.346 0 64 28.654 64 64v469.333c0 35.346-28.654 64-64 64zM320 597.334h384c11.782 0 21.333-9.551 21.333-21.333v-469.333c0-11.782-9.551-21.333-21.333-21.333h-384c-11.782 0-21.333 9.551-21.333 21.333v469.333c0 11.782 9.551 21.333 21.333 21.333zM597.333 469.334c10.473 0 19.183-7.547 20.99-17.499l0.344-3.835v-213.333c0-11.782-9.551-21.333-21.333-21.333-10.473 0-19.183 7.547-20.99 17.499l-0.344 3.835v213.333c0 11.782 9.551 21.333 21.333 21.333zM426.667 469.334c10.473 0 19.183-7.547 20.99-17.499l0.344-3.835v-213.333c0-11.782-9.551-21.333-21.333-21.333-10.473 0-19.183 7.547-20.99 17.499l-0.344 3.835v213.333c0 11.782 9.551 21.333 21.333 21.333z"/>
      <glyph unicode="&#xe940;" glyph-name="Edit-Mobile"
             d="M832 213.334c11.782 0 21.333-9.551 21.333-21.333 0-10.473-7.547-19.183-17.499-20.99l-3.835-0.344h-640c-11.782 0-21.333 9.551-21.333 21.333 0 10.473 7.547 19.183 17.499 20.99l3.835 0.344h640zM658.592 666.997c9.651 6.758 22.954 4.412 29.712-5.239 6.007-8.579 4.821-20.043-2.295-27.231l-2.944-2.481-454.356-318.144c-9.651-6.758-22.954-4.412-29.712 5.239-6.007 8.579-4.821 20.043 2.295 27.231l2.944 2.481 454.356 318.144zM756.483 527.195c9.651 6.758 22.954 4.412 29.712-5.239 6.007-8.579 4.821-20.043-2.295-27.231l-2.944-2.481-454.356-318.144c-9.651-6.758-22.954-4.412-29.712 5.239-6.007 8.579-4.821 20.043 2.295 27.231l2.944 2.481 454.356 318.144zM196.598 339.131c4.282 10.977 16.651 16.404 27.628 12.122 9.757-3.806 15.129-14.002 13.195-23.93l-1.073-3.697-55.906-143.319c-4.282-10.977-16.651-16.404-27.628-12.122-9.757 3.806-15.129 14.002-13.195 23.93l1.073 3.697 55.906 143.319zM314.85 170.248c11.779 0.269 21.109 10.036 20.84 21.815-0.239 10.47-7.983 19.006-17.974 20.584l-3.842 0.256-153.797-3.517c-11.779-0.269-21.109-10.036-20.84-21.815 0.239-10.47 7.983-19.006 17.974-20.584l3.842-0.256 153.797 3.517zM693.543 691.47c48.257 33.79 114.768 22.062 148.558-26.195s22.062-114.768-26.195-148.558l-52.426-36.709-122.363 174.752 52.426 36.709zM773.958 539.431l17.475 12.236c28.954 20.274 35.991 60.181 15.717 89.135-19.081 27.251-55.554 35.087-83.918 19.012l-5.217-3.295-17.475-12.236 73.418-104.851zM676.068 679.233l122.363-174.752-34.95-24.473-122.363 174.752zM239.187 373.326l122.363-174.752-34.95-24.473-122.363 174.752zM623.642 642.524l122.363-174.752-34.95-24.473-122.363 174.752z"/>
      <glyph unicode="&#xe941;" glyph-name="Minimize-Mobile"
             d="M746.667 448c11.782 0 21.333-9.551 21.333-21.333 0-10.473-7.547-19.183-17.499-20.99l-3.835-0.344h-469.333c-11.782 0-21.333 9.551-21.333 21.333 0 10.473 7.547 19.183 17.499 20.99l3.835 0.344h469.333z"/>
      <glyph unicode="&#xe942;" glyph-name="Add-Mobile"
             d="M792.149 448c11.782 0 21.333-9.551 21.333-21.333 0-10.473-7.547-19.183-17.499-20.99l-3.835-0.344h-560.298c-11.782 0-21.333 9.551-21.333 21.333 0 10.473 7.547 19.183 17.499 20.99l3.835 0.344h560.298zM533.333 706.816c0 11.782-9.551 21.333-21.333 21.333-10.473 0-19.183-7.547-20.99-17.499l-0.344-3.835v-560.298c0-11.782 9.551-21.333 21.333-21.333 10.473 0 19.183 7.547 20.99 17.499l0.344 3.835v560.298z"/>
      <glyph unicode="&#xe943;" glyph-name="Close-Mobile"
             d="M695.010 639.847c8.331 8.331 21.839 8.331 30.17 0 7.405-7.405 8.228-18.901 2.468-27.215l-2.468-2.955-396.19-396.19c-8.331-8.331-21.839-8.331-30.17 0-7.405 7.405-8.228 18.901-2.468 27.215l2.468 2.955 396.19 396.19zM328.99 639.847c-8.331 8.331-21.839 8.331-30.17 0-7.405-7.405-8.228-18.901-2.468-27.215l2.468-2.955 396.19-396.19c8.331-8.331 21.839-8.331 30.17 0 7.405 7.405 8.228 18.901 2.468 27.215l-2.468 2.955-396.19 396.19z"/>
      <glyph unicode="&#xe944;" glyph-name="Up-Mobile"
             d="M712.007 324.675c9.2-7.36 22.625-5.869 29.985 3.332 6.542 8.178 6.091 19.694-0.552 27.321l-2.78 2.664-186.68 149.344c-21.704 17.364-51.892 18.604-74.809 3.721l-5.152-3.721-186.68-149.344c-9.2-7.36-10.692-20.785-3.332-29.985 6.542-8.178 17.877-10.265 26.776-5.459l3.209 2.127 186.68 149.344c6.678 5.343 15.766 6.106 23.133 2.29l3.521-2.29 186.68-149.344z"/>
      <glyph unicode="&#xe945;" glyph-name="Left-Mobile"
             d="M613.992 226.66c7.36-9.2 5.869-22.625-3.332-29.985-8.178-6.542-19.694-6.091-27.321 0.552l-2.664 2.78-149.344 186.68c-17.364 21.704-18.604 51.892-3.721 74.809l3.721 5.152 149.344 186.68c7.36 9.2 20.785 10.692 29.985 3.332 8.178-6.542 10.265-17.877 5.459-26.776l-2.127-3.209-149.344-186.68c-5.343-6.678-6.106-15.766-2.29-23.133l2.29-3.521 149.344-186.68z"/>
      <glyph unicode="&#xe946;" glyph-name="Down-Mobile"
             d="M712.007 528.659c9.2 7.36 22.625 5.869 29.985-3.332 6.542-8.178 6.091-19.694-0.552-27.321l-2.78-2.664-186.68-149.344c-21.704-17.364-51.892-18.604-74.809-3.721l-5.152 3.721-186.68 149.344c-9.2 7.36-10.692 20.785-3.332 29.985 6.542 8.178 17.877 10.265 26.776 5.459l3.209-2.127 186.68-149.344c6.678-5.343 15.766-6.106 23.133-2.29l3.521 2.29 186.68 149.344z"/>
      <glyph unicode="&#xe947;" glyph-name="Right-Mobile"
             d="M410.008 226.66c-7.36-9.2-5.869-22.625 3.332-29.985 8.178-6.542 19.694-6.091 27.321 0.552l2.664 2.78 149.344 186.68c17.364 21.704 18.604 51.892 3.721 74.809l-3.721 5.152-149.344 186.68c-7.36 9.2-20.785 10.692-29.985 3.332-8.178-6.542-10.265-17.877-5.459-26.776l2.127-3.209 149.344-186.68c5.343-6.678 6.106-15.766 2.29-23.133l-2.29-3.521-149.344-186.68z"/>
      <glyph unicode="&#xe948;" glyph-name="Download-Mobile"
             d="M512 768c10.473 0 19.183-7.547 20.99-17.499l0.344-3.835v-469.333c0-11.782-9.551-21.333-21.333-21.333-10.473 0-19.183 7.547-20.99 17.499l-0.344 3.835v469.333c0 11.782 9.551 21.333 21.333 21.333zM874.667 170.667c11.782 0 21.333-9.551 21.333-21.333 0-10.473-7.547-19.183-17.499-20.99l-3.835-0.344h-725.333c-11.782 0-21.333 9.551-21.333 21.333 0 10.473 7.547 19.183 17.499 20.99l3.835 0.344h725.333zM712.007 443.326c9.2 7.36 22.625 5.869 29.985-3.332 6.542-8.178 6.091-19.694-0.552-27.321l-2.78-2.664-186.68-149.344c-21.704-17.364-51.892-18.604-74.809-3.721l-5.152 3.721-186.68 149.344c-9.2 7.36-10.692 20.785-3.332 29.985 6.542 8.178 17.877 10.265 26.776 5.459l3.209-2.127 186.68-149.344c6.678-5.343 15.766-6.106 23.133-2.29l3.521 2.29 186.68 149.344z"/>
      <glyph unicode="&#xe949;" glyph-name="Upload-Mobile"
             d="M512 768c10.473 0 19.183-7.547 20.99-17.499l0.344-3.835v-469.333c0-11.782-9.551-21.333-21.333-21.333-10.473 0-19.183 7.547-20.99 17.499l-0.344 3.835v469.333c0 11.782 9.551 21.333 21.333 21.333zM874.667 170.667c11.782 0 21.333-9.551 21.333-21.333 0-10.473-7.547-19.183-17.499-20.99l-3.835-0.344h-725.333c-11.782 0-21.333 9.551-21.333 21.333 0 10.473 7.547 19.183 17.499 20.99l3.835 0.344h725.333zM712.007 571.316c9.2-7.36 22.625-5.869 29.985 3.332 6.542 8.178 6.091 19.694-0.552 27.321l-2.78 2.664-186.68 149.344c-21.704 17.364-51.892 18.604-74.809 3.721l-5.152-3.721-186.68-149.344c-9.2-7.36-10.692-20.785-3.332-29.985 6.542-8.178 17.877-10.265 26.776-5.459l3.209 2.127 186.68 149.344c6.678 5.343 15.766 6.106 23.133 2.29l3.521-2.29 186.68-149.344z"/>
      <glyph unicode="&#xe94a;" glyph-name="Sort-Mobile"
             d="M597.333 682.667c10.473 0 19.183-7.547 20.99-17.499l0.344-3.835v-469.333c0-11.782-9.551-21.333-21.333-21.333-10.473 0-19.183 7.547-20.99 17.499l-0.344 3.835v469.333c0 11.782 9.551 21.333 21.333 21.333zM490.667 682.667c11.782 0 21.333-9.551 21.333-21.333 0-10.473-7.547-19.183-17.499-20.99l-3.835-0.344h-298.667c-11.782 0-21.333 9.551-21.333 21.333 0 10.473 7.547 19.183 17.499 20.99l3.835 0.344h298.667zM490.667 576c11.782 0 21.333-9.551 21.333-21.333 0-10.473-7.547-19.183-17.499-20.99l-3.835-0.344h-234.853c-11.782 0-21.333 9.551-21.333 21.333 0 10.473 7.547 19.183 17.499 20.99l3.835 0.344h234.853zM490.667 469.334c11.782 0 21.333-9.551 21.333-21.333 0-10.473-7.547-19.183-17.499-20.99l-3.835-0.344h-149.333c-11.782 0-21.333 9.551-21.333 21.333 0 10.473 7.547 19.183 17.499 20.99l3.835 0.344h149.333zM797.34 357.992c9.2 7.36 22.625 5.869 29.985-3.332 6.542-8.178 6.091-19.694-0.552-27.321l-2.78-2.664-186.68-149.344c-21.704-17.364-51.892-18.604-74.809-3.721l-5.152 3.721-186.68 149.344c-9.2 7.36-10.692 20.785-3.332 29.985 6.542 8.178 17.877 10.265 26.776 5.459l3.209-2.127 186.68-149.344c6.678-5.343 15.766-6.106 23.133-2.29l3.521 2.29 186.68 149.344z"/>
      <glyph unicode="&#xe94b;" glyph-name="Eye-Open-Mobile"
             d="M512 661.334c159.123 0 295.641-96.786 353.895-234.699-58.282-137.869-194.788-234.634-353.895-234.634s-295.613 96.766-353.877 234.657c58.236 137.891 194.754 234.677 353.877 234.677zM512 618.667c-130.34 0-247.079-73.723-304.51-186.929l-2.477-5.071 2.478-5.084c55.657-109.669 166.943-182.27 292.331-186.701l12.177-0.215c130.323 0 247.056 73.705 304.526 186.902l2.461 5.098-2.461 5.050c-55.65 109.687-166.946 182.304-292.347 186.735l-12.178 0.215zM512 597.334c94.257 0 170.667-76.41 170.667-170.667s-76.41-170.667-170.667-170.667c-94.257 0-170.667 76.41-170.667 170.667s76.41 170.667 170.667 170.667zM512 554.667c-70.692 0-128-57.308-128-128s57.308-128 128-128c70.692 0 128 57.308 128 128s-57.308 128-128 128z"/>
      <glyph unicode="&#xe94c;" glyph-name="Calendar-Mobile"
             d="M149.333 628.364v-488.727c0-41.616 32.899-75.636 73.846-75.636h577.641c40.947 0 73.846 34.021 73.846 75.636v488.727c0 41.616-32.899 75.636-73.846 75.636h-577.641c-40.947 0-73.846-34.021-73.846-75.636zM192 139.637v488.727c0 18.366 14.123 32.97 31.179 32.97h577.641c17.057 0 31.179-14.604 31.179-32.97v-488.727c0-18.366-14.123-32.97-31.179-32.97h-577.641c-17.057 0-31.179 14.604-31.179 32.97zM149.333 512c0 10.473 7.547 19.183 17.499 20.99l3.835 0.344h682.667c11.782 0 21.333-9.551 21.333-21.333 0-10.473-7.547-19.183-17.499-20.99l-3.835-0.344h-682.667c-11.782 0-21.333 9.551-21.333 21.333zM629.333 736c0 11.782 9.551 21.333 21.333 21.333 10.473 0 19.183-7.547 20.99-17.499l0.344-3.835v-128c0-11.782-9.551-21.333-21.333-21.333-10.473 0-19.183 7.547-20.99 17.499l-0.344 3.835v128zM330.667 736c0 11.782 9.551 21.333 21.333 21.333 10.473 0 19.183-7.547 20.99-17.499l0.344-3.835v-128c0-11.782-9.551-21.333-21.333-21.333-10.473 0-19.183 7.547-20.99 17.499l-0.344 3.835v128z"/>
      <glyph unicode="&#xe94d;" glyph-name="Eye-Close-Mobile"
             d="M512 661.334c159.123 0 295.641-96.786 353.895-234.699-58.282-137.869-194.788-234.634-353.895-234.634s-295.613 96.766-353.877 234.657c58.236 137.891 194.754 234.677 353.877 234.677zM512 618.667c-130.34 0-247.079-73.723-304.51-186.929l-2.477-5.071 2.478-5.084c55.657-109.669 166.943-182.27 292.331-186.701l12.177-0.215c130.323 0 247.056 73.705 304.526 186.902l2.461 5.098-2.461 5.050c-55.65 109.687-166.946 182.304-292.347 186.735l-12.178 0.215zM512 597.334c94.257 0 170.667-76.41 170.667-170.667s-76.41-170.667-170.667-170.667c-94.257 0-170.667 76.41-170.667 170.667s76.41 170.667 170.667 170.667zM512 554.667c-70.692 0-128-57.308-128-128s57.308-128 128-128c70.692 0 128 57.308 128 128s-57.308 128-128 128zM752.915 697.752c8.331 8.331 21.839 8.331 30.17 0 7.405-7.405 8.228-18.901 2.468-27.215l-2.468-2.955-512-512c-8.331-8.331-21.839-8.331-30.17 0-7.405 7.405-8.228 18.901-2.468 27.215l2.468 2.955 512 512z"/>
      <glyph unicode="&#xe94e;" glyph-name="Tik-Mobile"
             d="M208.229 345.436l138.682-131.091c23.696-22.399 60.118-23.224 84.745-2.819l4.473 4.075 388.425 388.425c8.331 8.331 8.331 21.839 0 30.17-7.405 7.405-18.901 8.228-27.215 2.468l-2.955-2.468-388.425-388.425c-7.259-7.259-18.48-8.212-26.778-2.762l-2.961 2.344-138.682 131.091c-8.562 8.094-22.064 7.714-30.158-0.849-7.194-7.611-7.693-19.125-1.702-27.274l2.551-2.884z"/>
      <glyph unicode="&#xe94f;" glyph-name="Clock-Mobile"
             d="M512 810.667c212.077 0 384-171.923 384-384s-171.923-384-384-384c-212.077 0-384 171.923-384 384s171.923 384 384 384zM512 768c-188.513 0-341.333-152.82-341.333-341.333s152.82-341.333 341.333-341.333c188.513 0 341.333 152.82 341.333 341.333s-152.82 341.333-341.333 341.333zM512 682.667c10.473 0 19.183-7.547 20.99-17.499l0.344-3.835v-234.667c0-11.782-9.551-21.333-21.333-21.333-10.473 0-19.183 7.547-20.99 17.499l-0.344 3.835v234.667c0 11.782 9.551 21.333 21.333 21.333zM682.667 448c11.782 0 21.333-9.551 21.333-21.333 0-10.473-7.547-19.183-17.499-20.99l-3.835-0.344h-170.667c-11.782 0-21.333 9.551-21.333 21.333 0 10.473 7.547 19.183 17.499 20.99l3.835 0.344h170.667z"/>
      <glyph unicode="&#xe950;" glyph-name="Increase-Mobile"
             d="M512 42.667c212.077 0 384 171.923 384 384s-171.923 384-384 384c-212.077 0-384-171.923-384-384s171.923-384 384-384zM512 85.334c-188.513 0-341.333 152.82-341.333 341.333s152.82 341.333 341.333 341.333c188.513 0 341.333-152.82 341.333-341.333s-152.82-341.333-341.333-341.333zM490.667 637.856c0 11.782 9.551 21.333 21.333 21.333 10.473 0 19.183-7.547 20.99-17.499l0.344-3.835v-422.378c0-11.782-9.551-21.333-21.333-21.333-10.473 0-19.183 7.547-20.99 17.499l-0.344 3.835v422.378zM300.811 448c-11.782 0-21.333-9.551-21.333-21.333 0-10.473 7.547-19.183 17.499-20.99l3.835-0.344h422.378c11.782 0 21.333 9.551 21.333 21.333 0 10.473-7.547 19.183-17.499 20.99l-3.835 0.344h-422.378z"/>
      <glyph unicode="&#xe951;" glyph-name="Error-Mobile"
             d="M512 42.667c212.077 0 384 171.923 384 384s-171.923 384-384 384c-212.077 0-384-171.923-384-384s171.923-384 384-384zM512 85.334c-188.513 0-341.333 152.82-341.333 341.333s152.82 341.333 341.333 341.333c188.513 0 341.333-152.82 341.333-341.333s-152.82-341.333-341.333-341.333zM646.248 591.085c8.331 8.331 21.839 8.331 30.17 0 7.405-7.405 8.228-18.901 2.468-27.215l-2.468-2.955-298.667-298.667c-8.331-8.331-21.839-8.331-30.17 0-7.405 7.405-8.228 18.901-2.468 27.215l2.468 2.955 298.667 298.667zM377.752 591.085c-8.331 8.331-21.839 8.331-30.17 0-7.405-7.405-8.228-18.901-2.468-27.215l2.468-2.955 298.667-298.667c8.331-8.331 21.839-8.331 30.17 0 7.405 7.405 8.228 18.901 2.468 27.215l-2.468 2.955-298.667 298.667z"/>
      <glyph unicode="&#xe952;" glyph-name="Done-Mobile"
             d="M512 42.667c212.077 0 384 171.923 384 384s-171.923 384-384 384c-212.077 0-384-171.923-384-384s171.923-384 384-384zM512 85.334c-188.513 0-341.333 152.82-341.333 341.333s152.82 341.333 341.333 341.333c188.513 0 341.333-152.82 341.333-341.333s-152.82-341.333-341.333-341.333zM312.976 370.204l78.386-74.095c23.696-22.399 60.118-23.224 84.745-2.819l4.473 4.075 239.226 239.226c8.331 8.331 8.331 21.839 0 30.17-7.405 7.405-18.901 8.228-27.215 2.468l-2.955-2.468-239.226-239.226c-7.259-7.259-18.48-8.212-26.778-2.762l-2.961 2.344-78.386 74.095c-8.562 8.094-22.064 7.714-30.158-0.849-7.194-7.611-7.693-19.125-1.702-27.274l2.551-2.884z"/>
      <glyph unicode="&#xe953;" glyph-name="Alert-Mobile"
             d="M512 810.667c212.077 0 384-171.923 384-384s-171.923-384-384-384c-212.077 0-384 171.923-384 384s171.923 384 384 384zM512 768c-188.513 0-341.333-152.82-341.333-341.333s152.82-341.333 341.333-341.333c188.513 0 341.333 152.82 341.333 341.333s-152.82 341.333-341.333 341.333zM512 192c-11.782 0-21.333 9.551-21.333 21.333s9.551 21.333 21.333 21.333c11.782 0 21.333-9.551 21.333-21.333s-9.551-21.333-21.333-21.333zM512 682.667c10.473 0 19.183-7.547 20.99-17.499l0.344-3.835v-341.333c0-11.782-9.551-21.333-21.333-21.333-10.473 0-19.183 7.547-20.99 17.499l-0.344 3.835v341.333c0 11.782 9.551 21.333 21.333 21.333z"/>
      <glyph unicode="&#xe954;" glyph-name="Info-Mobile"
             d="M512 42.667c212.077 0 384 171.923 384 384s-171.923 384-384 384c-212.077 0-384-171.923-384-384s171.923-384 384-384zM512 85.334c-188.513 0-341.333 152.82-341.333 341.333s152.82 341.333 341.333 341.333c188.513 0 341.333-152.82 341.333-341.333s-152.82-341.333-341.333-341.333zM512 661.334c-11.782 0-21.333-9.551-21.333-21.333s9.551-21.333 21.333-21.333c11.782 0 21.333 9.551 21.333 21.333s-9.551 21.333-21.333 21.333zM512 170.667c10.473 0 19.183 7.547 20.99 17.499l0.344 3.835v341.333c0 11.782-9.551 21.333-21.333 21.333-10.473 0-19.183-7.547-20.99-17.499l-0.344-3.835v-341.333c0-11.782 9.551-21.333 21.333-21.333z"/>
      <glyph unicode="&#xe955;" glyph-name="All-Mobile"
             d="M512 42.667c212.077 0 384 171.923 384 384s-171.923 384-384 384c-212.077 0-384-171.923-384-384s171.923-384 384-384zM512 85.334c-188.513 0-341.333 152.82-341.333 341.333s152.82 341.333 341.333 341.333c188.513 0 341.333-152.82 341.333-341.333s-152.82-341.333-341.333-341.333zM512 469.334c-23.564 0-42.667-19.103-42.667-42.667s19.103-42.667 42.667-42.667c23.564 0 42.667 19.103 42.667 42.667s-19.103 42.667-42.667 42.667z"/>
      <glyph unicode="&#x1f3e0;" glyph-name="Home"
             d="M476.363 832.001l-320-244.706c-14.515-11.1-23.030-28.329-23.030-46.602v-405.582c0-32.401 26.266-58.667 58.667-58.667h640c32.401 0 58.667 26.266 58.667 58.667v405.582c0 18.273-8.514 35.502-23.030 46.602l-320 244.706c-21.035 16.086-50.239 16.086-71.274 0zM528.199 806.582l320-244.706c6.598-5.045 10.468-12.877 10.468-21.183v-405.582c0-14.728-11.939-26.667-26.667-26.667h-640c-14.728 0-26.667 11.939-26.667 26.667v405.582c0 8.306 3.87 16.137 10.468 21.183l320 244.706c9.561 7.312 22.836 7.312 32.397 0zM576 428.444c30.781 0 56.025-23.705 58.472-53.855l0.194-4.812v-277.333h-32v277.333c0 13.595-10.173 24.813-23.322 26.459l-3.345 0.208h-128c-13.595 0-24.813-10.173-26.459-23.322l-0.208-3.345v-277.333h-32v277.333c0 30.781 23.705 56.025 53.855 58.472l4.812 0.194h128zM597.333 577.778c8.837 0 16-7.163 16-16 0-7.855-5.66-14.387-13.124-15.742l-2.876-0.258h-170.667c-8.837 0-16 7.163-16 16 0 7.855 5.66 14.387 13.124 15.742l2.876 0.258h170.667z"/>
      <glyph unicode="&#x1f534;" glyph-name="Error"
             d="M512 71.111c212.077 0 384 171.923 384 384s-171.923 384-384 384c-212.077 0-384-171.923-384-384s171.923-384 384-384zM512 103.111c-194.404 0-352 157.596-352 352s157.596 352 352 352c194.404 0 352-157.596 352-352s-157.596-352-352-352zM650.020 615.758c6.248 6.248 16.379 6.248 22.627 0 5.554-5.554 6.171-14.176 1.851-20.411l-1.851-2.216-298.667-298.667c-6.248-6.248-16.379-6.248-22.627 0-5.554 5.554-6.171 14.176-1.851 20.411l1.851 2.216 298.667 298.667zM373.98 615.758c-6.248 6.248-16.379 6.248-22.627 0-5.554-5.554-6.171-14.176-1.851-20.411l1.851-2.216 298.667-298.667c6.248-6.248 16.379-6.248 22.627 0 5.554 5.554 6.171 14.176 1.851 20.411l-1.851 2.216-298.667 298.667z"/>
      <glyph unicode="&#x1f535;" glyph-name="Info"
             d="M512 71.111c212.077 0 384 171.923 384 384s-171.923 384-384 384c-212.077 0-384-171.923-384-384s171.923-384 384-384zM512 103.111c-194.404 0-352 157.596-352 352s157.596 352 352 352c194.404 0 352-157.596 352-352s-157.596-352-352-352zM512 647.111c11.782 0 21.333 9.551 21.333 21.333s-9.551 21.333-21.333 21.333c-11.782 0-21.333-9.551-21.333-21.333s9.551-21.333 21.333-21.333zM512 204.444c7.855 0 14.387 5.66 15.742 13.124l0.258 2.876v341.333c0 8.837-7.163 16-16 16-7.855 0-14.387-5.66-15.742-13.124l-0.258-2.876v-341.333c0-8.837 7.163-16 16-16z"/>
      <glyph unicode="&#x1f5d1;" glyph-name="Calendar"
             d="M154.667 656.808v-488.727c0-38.709 30.552-70.303 68.513-70.303h577.641c37.961 0 68.513 31.594 68.513 70.303v488.727c0 38.709-30.552 70.303-68.513 70.303h-577.641c-37.961 0-68.513-31.594-68.513-70.303zM186.667 168.081v488.727c0 21.272 16.47 38.303 36.513 38.303h577.641c20.043 0 36.513-17.031 36.513-38.303v-488.727c0-21.272-16.47-38.303-36.513-38.303h-577.641c-20.043 0-36.513 17.031-36.513 38.303zM154.667 540.444c0 7.855 5.66 14.387 13.124 15.742l2.876 0.258h682.667c8.837 0 16-7.163 16-16 0-7.855-5.66-14.387-13.124-15.742l-2.876-0.258h-682.667c-8.837 0-16 7.163-16 16zM634.667 764.444c0 8.837 7.163 16 16 16 7.855 0 14.387-5.66 15.742-13.124l0.258-2.876v-128c0-8.837-7.163-16-16-16-7.855 0-14.387 5.66-15.742 13.124l-0.258 2.876v128zM336 764.444c0 8.837 7.163 16 16 16 7.855 0 14.387-5.66 15.742-13.124l0.258-2.876v-128c0-8.837-7.163-16-16-16-7.855 0-14.387 5.66-15.742 13.124l-0.258 2.876v128z"/>
      <glyph unicode="left" glyph-name="Left"
             d="M609.827 251.773c5.52-6.9 4.401-16.969-2.499-22.489-6.134-4.907-14.771-4.568-20.491 0.414l-1.998 2.085-149.344 186.68c-15.998 19.998-17.065 47.852-3.2 68.897l3.2 4.4 149.344 186.68c5.52 6.9 15.589 8.019 22.489 2.499 6.134-4.907 7.699-13.408 4.094-20.082l-1.595-2.407-149.344-186.68c-6.926-8.657-7.695-20.553-2.309-29.93l2.309-3.387 149.344-186.68z"/>
      <glyph unicode="icon-user" glyph-name="User"
             d="M512 817.778c106.039 0 192-85.961 192-192s-85.961-192-192-192c-106.039 0-192 85.961-192 192s85.961 192 192 192zM512 785.778c-88.366 0-160-71.634-160-160s71.634-160 160-160c88.366 0 160 71.634 160 160s-71.634 160-160 160zM708.923 385.778h-393.846c-76.954 0-139.077-64.608-139.077-144v-86.756c0-31.478 24.776-57.244 55.658-57.244h560.684c30.883 0 55.658 25.767 55.658 57.244v86.756c0 79.392-62.123 144-139.077 144zM315.077 353.778h393.846c58.994 0 107.077-50.007 107.077-112v-86.756c0-14.079-10.736-25.244-23.658-25.244h-560.684c-12.923 0-23.658 11.165-23.658 25.244v86.756c0 61.993 48.083 112 107.077 112z"/>
      <glyph unicode="icon-upload" glyph-name="Upload"
             d="M512 791.111c7.855 0 14.387-5.66 15.742-13.124l0.258-2.876v-469.333c0-8.837-7.163-16-16-16-7.855 0-14.387 5.66-15.742 13.124l-0.258 2.876v469.333c0 8.837 7.163 16 16 16zM874.667 193.778c8.837 0 16-7.163 16-16 0-7.855-5.66-14.387-13.124-15.742l-2.876-0.258h-725.333c-8.837 0-16 7.163-16 16 0 7.855 5.66 14.387 13.124 15.742l2.876 0.258h725.333zM715.338 603.924c6.9-5.52 16.969-4.401 22.489 2.499 4.907 6.134 4.568 14.771-0.414 20.491l-2.085 1.998-186.68 149.344c-19.998 15.998-47.852 17.065-68.897 3.2l-4.4-3.2-186.68-149.344c-6.9-5.52-8.019-15.589-2.499-22.489 4.907-6.134 13.408-7.699 20.082-4.094l2.407 1.595 186.68 149.344c8.657 6.926 20.553 7.695 29.93 2.309l3.387-2.309 186.68-149.344z"/>
      <glyph unicode="icon-up" glyph-name="Up"
             d="M715.338 357.284c6.9-5.52 16.969-4.401 22.489 2.499 4.907 6.134 4.568 14.771-0.414 20.491l-2.085 1.998-186.68 149.344c-19.998 15.998-47.852 17.065-68.897 3.2l-4.4-3.2-186.68-149.344c-6.9-5.52-8.019-15.589-2.499-22.489 4.907-6.134 13.408-7.699 20.082-4.094l2.407 1.595 186.68 149.344c8.657 6.926 20.553 7.695 29.93 2.309l3.387-2.309 186.68-149.344z"/>
      <glyph unicode="icon-trash" glyph-name="Trash"
             d="M746.667 727.111c8.837 0 16-7.163 16-16 0-7.855-5.66-14.387-13.124-15.742l-2.876-0.258h-469.333c-8.837 0-16 7.163-16 16 0 7.855 5.66 14.387 13.124 15.742l2.876 0.258h469.333zM597.333 791.111c8.837 0 16-7.163 16-16 0-7.855-5.66-14.387-13.124-15.742l-2.876-0.258h-170.667c-8.837 0-16 7.163-16 16 0 7.855 5.66 14.387 13.124 15.742l2.876 0.258h170.667zM704 663.111h-384c-32.401 0-58.667-26.266-58.667-58.667v-469.333c0-32.401 26.266-58.667 58.667-58.667h384c32.401 0 58.667 26.266 58.667 58.667v469.333c0 32.401-26.266 58.667-58.667 58.667zM320 631.111h384c14.728 0 26.667-11.939 26.667-26.667v-469.333c0-14.728-11.939-26.667-26.667-26.667h-384c-14.728 0-26.667 11.939-26.667 26.667v469.333c0 14.728 11.939 26.667 26.667 26.667zM597.333 492.444c7.855 0 14.387-5.66 15.742-13.124l0.258-2.876v-213.333c0-8.837-7.163-16-16-16-7.855 0-14.387 5.66-15.742 13.124l-0.258 2.876v213.333c0 8.837 7.163 16 16 16zM426.667 492.444c7.855 0 14.387-5.66 15.742-13.124l0.258-2.876v-213.333c0-8.837-7.163-16-16-16-7.855 0-14.387 5.66-15.742 13.124l-0.258 2.876v213.333c0 8.837 7.163 16 16 16z"/>
      <glyph unicode="icon-tik" glyph-name="Tik"
             d="M211.893 377.757l138.682-131.091c21.925-20.725 55.736-21.301 78.315-2.053l3.469 3.204 388.425 388.425c6.248 6.248 6.248 16.379 0 22.627-5.554 5.554-14.176 6.171-20.411 1.851l-2.216-1.851-388.425-388.425c-9.422-9.422-24.186-10.345-34.653-2.631l-2.522 2.108-138.682 131.091c-6.422 6.070-16.548 5.785-22.618-0.636-5.396-5.708-5.77-14.344-1.276-20.455l1.913-2.163z"/>
      </font>
</defs>
</svg>
