<svg width="32" height="32" viewBox="0 0 32 32" fill="none" xmlns="http://www.w3.org/2000/svg">
<g id="Participants">
<rect id="Rectangle Copy 50" width="32" height="32" fill="white" fill-opacity="0.01"/>
<g id="Group 9">
<path id="Rectangle" fillRule="evenodd" clipRule="evenodd" d="M7.33333 3.5H24.6667C25.6792 3.5 26.5 4.32081 26.5 5.33333V26.6667C26.5 27.6792 25.6792 28.5 24.6667 28.5H7.33333C6.32081 28.5 5.5 27.6792 5.5 26.6667V5.33333C5.5 4.32081 6.32081 3.5 7.33333 3.5ZM24.6667 4.5H7.33333C6.8731 4.5 6.5 4.8731 6.5 5.33333V26.6667C6.5 27.1269 6.8731 27.5 7.33333 27.5H24.6667C25.1269 27.5 25.5 27.1269 25.5 26.6667V5.33333C25.5 4.8731 25.1269 4.5 24.6667 4.5Z" fill="#353535"/>
<path id="Line 7 Copy 3" d="M22 23.5C22.2761 23.5 22.5 23.7239 22.5 24C22.5 24.2455 22.3231 24.4496 22.0899 24.4919L22 24.5H10C9.72386 24.5 9.5 24.2761 9.5 24C9.5 23.7545 9.67688 23.5504 9.91012 23.5081L10 23.5H22Z" fill="#353535"/>
</g>
<g id="Group 4 Copy 4">
<path id="Oval" fillRule="evenodd" clipRule="evenodd" d="M19.3332 9.99996C19.3332 8.15901 17.8408 6.66663 15.9998 6.66663C14.1589 6.66663 12.6665 8.15901 12.6665 9.99996C12.6665 11.8409 14.1589 13.3333 15.9998 13.3333C17.8408 13.3333 19.3332 11.8409 19.3332 9.99996ZM13.6665 9.99996C13.6665 8.71129 14.7112 7.66663 15.9998 7.66663C17.2885 7.66663 18.3332 8.71129 18.3332 9.99996C18.3332 11.2886 17.2885 12.3333 15.9998 12.3333C14.7112 12.3333 13.6665 11.2886 13.6665 9.99996Z" fill="#353535"/>
<path id="Path 6" fillRule="evenodd" clipRule="evenodd" d="M12.7178 14.1666H19.2819C20.7238 14.1666 21.8332 15.6088 21.8332 17.3333V19.1407C21.8332 19.867 21.3463 20.5 20.6722 20.5H11.3275C10.6534 20.5 10.1665 19.867 10.1665 19.1407V17.3333C10.1665 15.6088 11.2759 14.1666 12.7178 14.1666ZM19.2819 15.1666H12.7178C11.8939 15.1666 11.1665 16.1123 11.1665 17.3333V19.1407C11.1665 19.3635 11.2715 19.5 11.3275 19.5H20.6722C20.7282 19.5 20.8332 19.3635 20.8332 19.1407V17.3333C20.8332 16.1123 20.1057 15.1666 19.2819 15.1666Z" fill="#353535"/>
</g>
</g>
</svg>
