<svg width="32" height="32" viewBox="0 0 32 32" fill="none" xmlns="http://www.w3.org/2000/svg">
<g id="Home">
<g id="Home Copy 2">
<rect id="Rectangle Copy 4" width="32" height="32" fill="white" fill-opacity="0.01"/>
</g>
<g id="Group 3">
<path id="Path" fillRule="evenodd" clipRule="evenodd" d="M4.88618 11.8693L14.8862 4.22223C15.5435 3.71954 16.4561 3.71954 17.1135 4.22223L27.1135 11.8693C27.5671 12.2162 27.8332 12.7546 27.8332 13.3256V26C27.8332 27.0126 27.0124 27.8334 25.9998 27.8334H5.99984C4.98732 27.8334 4.1665 27.0126 4.1665 26V13.3256C4.1665 12.7546 4.43258 12.2162 4.88618 11.8693ZM26.506 12.6636L16.506 5.01658C16.2072 4.78809 15.7924 4.78809 15.4936 5.01658L5.49363 12.6636C5.28745 12.8213 5.1665 13.066 5.1665 13.3256V26C5.1665 26.4603 5.5396 26.8334 5.99984 26.8334H25.9998C26.4601 26.8334 26.8332 26.4603 26.8332 26V13.3256C26.8332 13.066 26.7122 12.8213 26.506 12.6636Z" fill="#353535"/>
<path id="Path 2" d="M17.9998 16.8334C18.9617 16.8334 19.7506 17.5742 19.8271 18.5163L19.8332 18.6667V27.3334H18.8332V18.6667C18.8332 18.2419 18.5153 17.8913 18.1044 17.8399L17.9998 17.8334H13.9998C13.575 17.8334 13.2244 18.1513 13.173 18.5622L13.1665 18.6667V27.3334H12.1665V18.6667C12.1665 17.7048 12.9073 16.9159 13.8495 16.8395L13.9998 16.8334H17.9998Z" fill="#353535"/>
</g>
<path id="Line 3 Copy" d="M18.6668 12.1666C18.943 12.1666 19.1668 12.3905 19.1668 12.6666C19.1668 12.9121 18.99 13.1162 18.7567 13.1586L18.6668 13.1666H13.3335C13.0574 13.1666 12.8335 12.9428 12.8335 12.6666C12.8335 12.4212 13.0104 12.217 13.2436 12.1747L13.3335 12.1666H18.6668Z" fill="#353535"/>
</g>
</svg>
