<svg width="32" height="32" viewBox="0 0 32 32" fill="none" xmlns="http://www.w3.org/2000/svg">
<g id="Test">
<rect id="Rectangle Copy 50" width="32" height="32" fill="white" fill-opacity="0.01"/>
<g id="Group 7">
<path id="Rectangle" fillRule="evenodd" clipRule="evenodd" d="M7.33333 3.5H24.6667C25.6792 3.5 26.5 4.32081 26.5 5.33333V26.6667C26.5 27.6792 25.6792 28.5 24.6667 28.5H7.33333C6.32081 28.5 5.5 27.6792 5.5 26.6667V5.33333C5.5 4.32081 6.32081 3.5 7.33333 3.5ZM24.6667 4.5H7.33333C6.8731 4.5 6.5 4.8731 6.5 5.33333V26.6667C6.5 27.1269 6.8731 27.5 7.33333 27.5H24.6667C25.1269 27.5 25.5 27.1269 25.5 26.6667V5.33333C25.5 4.8731 25.1269 4.5 24.6667 4.5Z" fill="#353535"/>
<path id="Rectangle_2" fillRule="evenodd" clipRule="evenodd" d="M20.0002 6.16663H22.6668C23.3112 6.16663 23.8335 6.68896 23.8335 7.33329V9.99996C23.8335 10.6443 23.3112 11.1666 22.6668 11.1666H20.0002C19.3558 11.1666 18.8335 10.6443 18.8335 9.99996V7.33329C18.8335 6.68896 19.3558 6.16663 20.0002 6.16663ZM22.6668 7.16663H20.0002C19.9081 7.16663 19.8335 7.24125 19.8335 7.33329V9.99996C19.8335 10.092 19.9081 10.1666 20.0002 10.1666H22.6668C22.7589 10.1666 22.8335 10.092 22.8335 9.99996V7.33329C22.8335 7.24125 22.7589 7.16663 22.6668 7.16663Z" fill="#353535"/>
<path id="Rectangle Copy 13" fillRule="evenodd" clipRule="evenodd" d="M20.0002 13.5H22.6668C23.3112 13.5 23.8335 14.0223 23.8335 14.6667V17.3333C23.8335 17.9777 23.3112 18.5 22.6668 18.5H20.0002C19.3558 18.5 18.8335 17.9777 18.8335 17.3333V14.6667C18.8335 14.0223 19.3558 13.5 20.0002 13.5ZM22.6668 14.5H20.0002C19.9081 14.5 19.8335 14.5746 19.8335 14.6667V17.3333C19.8335 17.4254 19.9081 17.5 20.0002 17.5H22.6668C22.7589 17.5 22.8335 17.4254 22.8335 17.3333V14.6667C22.8335 14.5746 22.7589 14.5 22.6668 14.5Z" fill="#353535"/>
<path id="Rectangle Copy 17" fillRule="evenodd" clipRule="evenodd" d="M20.0002 20.8334H22.6668C23.3112 20.8334 23.8335 21.3557 23.8335 22V24.6667C23.8335 25.311 23.3112 25.8334 22.6668 25.8334H20.0002C19.3558 25.8334 18.8335 25.311 18.8335 24.6667V22C18.8335 21.3557 19.3558 20.8334 20.0002 20.8334ZM22.6668 21.8334H20.0002C19.9081 21.8334 19.8335 21.908 19.8335 22V24.6667C19.8335 24.7588 19.9081 24.8334 20.0002 24.8334H22.6668C22.7589 24.8334 22.8335 24.7588 22.8335 24.6667V22C22.8335 21.908 22.7589 21.8334 22.6668 21.8334Z" fill="#353535"/>
<path id="Line 7 Copy 2" d="M16.6665 15.5C16.9426 15.5 17.1665 15.7239 17.1665 16C17.1665 16.2455 16.9896 16.4496 16.7564 16.4919L16.6665 16.5H8.6665C8.39036 16.5 8.1665 16.2761 8.1665 16C8.1665 15.7545 8.34338 15.5504 8.57663 15.5081L8.6665 15.5H16.6665Z" fill="#353535"/>
<path id="Line 7 Copy 5" d="M16.6665 8.16663C16.9426 8.16663 17.1665 8.39048 17.1665 8.66663C17.1665 8.91209 16.9896 9.11623 16.7564 9.15857L16.6665 9.16663H8.6665C8.39036 9.16663 8.1665 8.94277 8.1665 8.66663C8.1665 8.42117 8.34338 8.21702 8.57663 8.17468L8.6665 8.16663H16.6665Z" fill="#353535"/>
<path id="Line 7 Copy 7" d="M16.6665 22.8334C16.9426 22.8334 17.1665 23.0572 17.1665 23.3334C17.1665 23.5788 16.9896 23.783 16.7564 23.8253L16.6665 23.8334H8.6665C8.39036 23.8334 8.1665 23.6095 8.1665 23.3334C8.1665 23.0879 8.34338 22.8838 8.57663 22.8414L8.6665 22.8334H16.6665Z" fill="#353535"/>
</g>
</g>
</svg>
