<svg width="17" height="15" viewBox="0 0 17 15" fill="none" xmlns="http://www.w3.org/2000/svg">
<path d="M14.2415 6.20483C14.4596 5.95712 14.8729 5.92593 15.1144 6.15603C15.1865 6.22472 15.2546 6.29256 15.3187 6.35955C15.5073 6.55423 15.6808 6.7526 15.839 6.95466C15.8393 6.95513 15.8402 6.9549 15.8402 6.95432Lnan nanL15.8402 6.95432C15.8402 6.95375 15.841 6.95352 15.8414 6.95398C16.0133 7.16847 16.1687 7.39279 16.3074 7.62695C16.4465 7.86166 16.5661 8.10254 16.6662 8.3496C16.7664 8.59418 16.8442 8.84618 16.8999 9.10559C16.9555 9.36253 16.9889 9.62194 17 9.88382V10.0061C17 10.7374 16.7984 11.4551 16.3951 12.1592C16.0715 12.728 15.6164 13.2896 15.0296 13.8439C14.7963 14.0643 14.4013 14.0471 14.1778 13.819Lnan nanL14.1778 13.819C13.9687 13.6056 13.9879 13.2859 14.2042 13.0782C14.3778 12.9115 14.5379 12.7423 14.6845 12.5706C14.9376 12.2766 15.1476 11.9813 15.3145 11.6849C15.4842 11.3884 15.6107 11.0919 15.6942 10.7955C15.7804 10.4965 15.8235 10.2038 15.8235 9.91718C15.8096 9.68494 15.772 9.45765 15.7108 9.2353C15.6524 9.01295 15.5801 8.80295 15.4939 8.6053C15.4077 8.40519 15.3131 8.22113 15.2102 8.05313C15.1073 7.88266 15.0058 7.73319 14.9056 7.60472C14.8166 7.49354 14.7207 7.38237 14.6178 7.27119C14.5176 7.16002 14.4217 7.05872 14.3299 6.96731C14.2381 6.8759 14.1533 6.79561 14.0754 6.72643Lnan nanL14.0754 6.72643C13.983 6.6413 13.9742 6.5083 14.0563 6.41517L14.2415 6.20483Z" fill="#9D2CDF"/>
<path d="M10.7585 6.20483C10.5404 5.95712 10.1271 5.92593 9.88562 6.15603C9.81353 6.22472 9.74543 6.29256 9.68133 6.35955C9.49268 6.55423 9.31924 6.7526 9.16103 6.95466C9.16066 6.95513 9.15983 6.9549 9.15983 6.95432Lnan nanL9.15983 6.95432C9.15983 6.95375 9.159 6.95352 9.15863 6.95398C8.98666 7.16847 8.8313 7.39279 8.69256 7.62695C8.55349 7.86166 8.43389 8.10254 8.33376 8.3496C8.23363 8.59418 8.15576 8.84618 8.10013 9.10559C8.0445 9.36253 8.01113 9.62194 8 9.88382V10.0061C8 10.7374 8.20165 11.4551 8.60495 12.1592C8.9285 12.728 9.38364 13.2896 9.97039 13.8439C10.2037 14.0643 10.5987 14.0471 10.8222 13.819Lnan nanL10.8222 13.819C11.0313 13.6056 11.0121 13.2859 10.7958 13.0782C10.6222 12.9115 10.4621 12.7423 10.3155 12.5706C10.0624 12.2766 9.85238 11.9813 9.6855 11.6849C9.51584 11.3884 9.38929 11.0919 9.30585 10.7955C9.21962 10.4965 9.17651 10.2038 9.17651 9.91718C9.19042 9.68494 9.22797 9.45765 9.28916 9.2353C9.34757 9.01295 9.41988 8.80295 9.5061 8.6053C9.59233 8.40519 9.68689 8.22113 9.7898 8.05313C9.89271 7.88266 9.99423 7.73319 10.0944 7.60472C10.1834 7.49354 10.2793 7.38237 10.3822 7.27119C10.4824 7.16002 10.5783 7.05872 10.6701 6.96731C10.7619 6.8759 10.8467 6.79561 10.9246 6.72643Lnan nanL10.9246 6.72643C11.017 6.6413 11.0258 6.5083 10.9437 6.41517L10.7585 6.20483Z" fill="#9D2CDF"/>
<path d="M6.25781 5.24394L5.48796 5.26064L5.47879 5.26084L5.46966 5.25992C5.38463 5.25134 5.29784 5.22587 5.23102 5.16523C5.15964 5.10046 5.13086 5.01384 5.13086 4.92569C5.13086 4.79893 5.17332 4.67138 5.29703 4.60084C5.39719 4.54105 5.53506 4.51609 5.68876 4.5088C5.83625 4.49607 6.08024 4.48938 6.41712 4.48815C6.61821 3.68228 6.81096 3.03546 6.9957 2.54983L6.99633 2.54817L6.99634 2.54818C7.19975 2.03192 7.46978 1.61974 7.81081 1.31956C8.1626 1.00294 8.61493 0.85 9.15402 0.85C9.44093 0.85 9.67371 0.875588 9.83986 0.936142C9.9238 0.96673 10.0007 1.00976 10.0578 1.07218C10.1179 1.13787 10.15 1.21877 10.15 1.3083C10.15 1.48396 10.0334 1.62249 9.88264 1.72888L9.83089 1.7654L9.76862 1.75378C9.59911 1.72213 9.33848 1.70494 8.98075 1.70494C8.57794 1.70494 8.2078 1.94455 7.87605 2.4954C7.57048 3.00693 7.34667 3.66977 7.20935 4.48933L8.32843 4.49822C8.32863 4.49822 8.32884 4.49822 8.32904 4.49822L8.32962 4.49823L8.32843 4.64822L6.25781 5.24394ZM6.25781 5.24394L6.13139 6.08522L6.13139 6.08522L6.13124 6.08625C5.94108 7.41471 5.77136 8.53722 5.62208 9.45398L6.25781 5.24394ZM2.94677 14.15C3.71101 14.15 4.33334 13.9625 4.79608 13.5704L1.00805 12.817C0.909154 12.8835 0.85 12.9832 0.85 13.1059C0.85 13.2139 0.89794 13.3102 0.966413 13.3922C1.0343 13.4735 1.12953 13.5497 1.24477 13.6224C1.4764 13.7755 1.75459 13.9005 2.07676 13.9994C2.39264 14.0984 2.68318 14.15 2.94677 14.15Z" fill="#9D2CDF" stroke="#9D2CDF" stroke-width="0.3"/>
<path d="M13.0286 11.9079L13.0271 11.8899C13.0241 11.8526 13.0074 11.7938 12.9657 11.7096C12.9131 11.6322 12.861 11.5192 12.8082 11.3803L12.8035 11.3681L12.8041 11.368C12.786 11.3043 12.7259 11.1568 12.6161 10.9147L12.6158 10.914L12.6158 10.914C12.5569 10.7823 12.5075 10.6709 12.4679 10.5804L11.5078 11.9611C11.427 12.0854 11.3 12.1424 11.1549 12.1424C11.0876 12.1424 11.0094 12.1297 10.9457 12.0795C10.8754 12.0239 10.85 11.9445 10.85 11.87C10.85 11.7788 10.8952 11.6867 10.947 11.6056L10.9492 11.6022L10.9492 11.6022L11.1769 11.2665L11.1775 11.2657L11.4378 10.8765L11.4382 10.8758L11.4382 10.8758C11.731 10.4429 11.9655 10.1025 12.1415 9.85514L12.1256 9.81791L12.1226 9.8109L12.1228 9.81083C12.0686 9.66335 12.0356 9.57317 12.0244 9.54162C11.9541 9.34365 11.895 9.18506 11.8471 9.06523L11.845 9.05982L11.8451 9.05978L11.7802 8.87733C11.7468 8.78766 11.723 8.72185 11.7133 8.6891L11.6419 8.49552L11.6382 8.48541L11.6359 8.47487C11.6326 8.45939 11.6275 8.44311 11.6202 8.42594L11.6165 8.41743L11.6168 8.41733C11.6067 8.38899 11.5982 8.36121 11.5916 8.33418C11.5658 8.28 11.5511 8.22177 11.5511 8.16061C11.5511 8.06143 11.6168 7.9906 11.6674 7.9483C11.7381 7.88362 11.8251 7.85 11.9212 7.85C12.1247 7.85 12.2417 8.01604 12.3066 8.19314L12.3071 8.19452L12.3071 8.19452C12.34 8.28724 12.3641 8.36244 12.3769 8.41667L12.3789 8.42496L12.3787 8.42501C12.3981 8.53423 12.4351 8.65607 12.4916 8.79101L12.4948 8.79865L12.4946 8.79873C12.5594 8.981 12.6117 9.11295 12.6519 9.19773L12.6534 9.20088C12.7487 9.08183 12.8583 8.93773 12.9821 8.76813L12.9827 8.76735L12.9827 8.76735L13.1865 8.49202L13.1877 8.49039L13.1877 8.4904C13.2557 8.40105 13.3084 8.33236 13.3456 8.28458C13.3641 8.26075 13.3792 8.24164 13.3905 8.22758L13.3914 8.22649C13.3979 8.21844 13.4085 8.20521 13.4187 8.19465C13.5065 8.10141 13.5961 8.02717 13.6878 7.98084L13.6965 7.97645L13.7057 7.97322C13.759 7.95444 13.8146 7.94178 13.8696 7.94178H13.8827L13.8956 7.94405C13.9548 7.95446 14.0191 7.97665 14.07 8.02445C14.1255 8.07653 14.15 8.14469 14.15 8.21415C14.15 8.29844 14.131 8.37897 14.0916 8.45296C14.0505 8.53003 13.9701 8.63532 13.8614 8.76272L13.8563 8.7687L13.8562 8.76856C13.8189 8.80785 13.7054 8.94771 13.5088 9.19872L13.5047 9.20448L13.4864 9.23029L13.413 9.33354C13.2585 9.55098 13.1076 9.74741 12.9604 9.92257C13.2482 10.5803 13.4143 10.9746 13.45 11.0902M13.0286 11.9079L13.3071 11.1358M13.0286 11.9079L13.0343 11.925C13.0525 11.9797 13.0808 12.0355 13.127 12.0788C13.1766 12.1254 13.2392 12.15 13.3071 12.15C13.3998 12.15 13.4881 12.1243 13.5619 12.0651M13.0286 11.9079L13.5619 12.0651M13.45 11.0902C13.4502 11.0908 13.4504 11.0914 13.4506 11.0921L13.3071 11.1358M13.45 11.0902C13.4498 11.0897 13.4496 11.0892 13.4495 11.0886L13.3071 11.1358M13.45 11.0902C13.4962 11.2296 13.5461 11.3433 13.5987 11.4333M13.3071 11.1358C13.356 11.2836 13.4103 11.4085 13.4701 11.5105M13.5987 11.4333C13.5984 11.4328 13.5981 11.4323 13.5978 11.4317L13.4701 11.5105M13.5987 11.4333C13.6708 11.5506 13.7098 11.6764 13.7098 11.8088V11.8232L13.707 11.8373C13.6888 11.9316 13.6376 12.0088 13.5619 12.0651M13.5987 11.4333C13.599 11.4338 13.5992 11.4342 13.5995 11.4347L13.4701 11.5105M13.4701 11.5105L13.5619 12.0651" fill="#9D2CDF" stroke="#9D2CDF" stroke-width="0.3"/>
</svg>
